<svg width="611" height="584" viewBox="0 0 611 584" fill="none" xmlns="http://www.w3.org/2000/svg">
<rect y="28" width="603" height="516" fill="#D9D9D9"/>
<path d="M301.586 48.6128C304.99 42.3274 314.01 42.3274 317.414 48.6128L538.297 456.464C541.544 462.461 537.202 469.75 530.383 469.75H88.6174C81.7978 469.75 77.4558 462.461 80.7035 456.464L301.586 48.6128Z" fill="#FF0000"/>
<path d="M309 71L507.32 446.75H110.68L309 71Z" fill="#FFE500"/>
<rect x="296" y="153" width="27" height="265" fill="black"/>
<rect x="285" y="139" width="11" height="293" fill="white"/>
<rect x="323" y="139" width="11" height="293" fill="white"/>
<path d="M157.304 554.896C157.472 554.416 157.64 553.948 157.808 553.492C158 553.012 158.18 552.532 158.348 552.052C158.468 551.692 158.624 551.332 158.816 550.972C159.008 550.612 159.176 550.288 159.32 550C159.44 549.592 159.56 549.268 159.68 549.028C159.824 548.764 159.908 548.596 159.932 548.524C159.932 548.476 159.98 548.356 160.076 548.164C160.196 547.972 160.328 547.66 160.472 547.228C160.544 547.012 160.604 546.784 160.652 546.544C160.724 546.304 160.808 546.076 160.904 545.86L161.768 543.772C161.864 543.508 161.924 543.316 161.948 543.196C161.996 543.052 162.032 542.932 162.056 542.836C162.08 542.74 162.104 542.632 162.128 542.512C162.152 542.392 162.224 542.2 162.344 541.936C162.464 541.672 162.56 541.42 162.632 541.18C162.728 540.94 162.836 540.688 162.956 540.424C163.004 540.28 163.052 540.136 163.1 539.992C163.148 539.848 163.196 539.704 163.244 539.56C163.316 539.368 163.376 539.2 163.424 539.056C163.472 538.912 163.52 538.744 163.568 538.552C163.616 538.504 163.652 538.444 163.676 538.372C163.7 538.276 163.748 538.168 163.82 538.048C163.964 537.952 164.084 537.904 164.18 537.904C164.276 537.88 164.372 537.868 164.468 537.868H166.124C166.172 537.964 166.196 538.06 166.196 538.156C166.196 538.228 166.22 538.312 166.268 538.408L166.412 538.948L166.52 539.236L166.916 540.352L167.564 542.188L167.816 542.656C167.864 542.704 167.912 542.812 167.96 542.98C168.008 543.124 168.08 543.316 168.176 543.556C168.296 543.868 168.416 544.228 168.536 544.636C168.68 545.02 168.812 545.404 168.932 545.788C169.1 546.388 169.232 546.832 169.328 547.12C169.448 547.408 169.568 547.708 169.688 548.02C169.76 548.116 169.808 548.224 169.832 548.344C169.856 548.464 169.892 548.584 169.94 548.704L170.408 550.18L171.02 551.476C171.092 551.692 171.164 551.908 171.236 552.124C171.332 552.316 171.44 552.508 171.56 552.7C171.752 553.18 171.908 553.624 172.028 554.032C172.148 554.416 172.304 554.848 172.496 555.328C172.592 555.544 172.688 555.748 172.784 555.94C172.904 556.132 173 556.336 173.072 556.552C173.12 556.672 173.168 556.792 173.216 556.912C173.264 557.032 173.312 557.152 173.36 557.272C173.48 557.488 173.576 557.716 173.648 557.956C173.744 558.172 173.852 558.412 173.972 558.676C174.02 558.82 174.08 558.964 174.152 559.108C174.224 559.252 174.272 559.384 174.296 559.504C174.176 559.504 174.056 559.492 173.936 559.468C173.816 559.444 173.708 559.432 173.612 559.432H173C172.784 559.432 172.592 559.432 172.424 559.432C172.256 559.456 172.112 559.468 171.992 559.468C171.872 559.18 171.692 558.904 171.452 558.64C171.236 558.352 171.008 558.004 170.768 557.596C170.72 557.476 170.672 557.368 170.624 557.272C170.576 557.176 170.528 557.08 170.48 556.984C170.432 556.84 170.288 556.636 170.048 556.372C169.832 556.108 169.712 555.904 169.688 555.76C169.496 555.544 169.352 555.376 169.256 555.256C169.184 555.112 169.088 554.98 168.968 554.86C168.872 554.86 168.752 554.86 168.608 554.86C168.464 554.836 168.332 554.812 168.212 554.788C168.068 554.764 167.912 554.752 167.744 554.752H166.88C166.76 554.752 166.628 554.764 166.484 554.788C166.364 554.788 166.172 554.8 165.908 554.824C165.644 554.824 165.284 554.836 164.828 554.86C164.372 554.86 163.76 554.86 162.992 554.86H162.74C162.548 554.86 162.392 554.884 162.272 554.932C162.176 554.956 162.032 554.932 161.84 554.86C161.768 554.812 161.588 554.8 161.3 554.824C161.036 554.848 160.856 554.872 160.76 554.896L160.292 554.932L160.112 555.184C160.064 555.328 159.98 555.496 159.86 555.688C159.74 555.88 159.62 556.072 159.5 556.264C159.38 556.456 159.26 556.648 159.14 556.84C159.044 557.032 158.972 557.188 158.924 557.308L158.672 557.956L157.772 559.612C157.724 559.708 157.652 559.756 157.556 559.756C157.46 559.756 157.388 559.78 157.34 559.828H155.504C155.408 559.732 155.36 559.672 155.36 559.648C155.36 559.624 155.408 559.552 155.504 559.432C155.504 559.336 155.54 559.192 155.612 559C155.684 558.832 155.72 558.7 155.72 558.604C155.84 558.412 155.936 558.22 156.008 558.028C156.104 557.812 156.2 557.608 156.296 557.416L157.304 554.896ZM164.864 545.968C164.744 546.016 164.66 546.076 164.612 546.148C164.564 546.22 164.516 546.304 164.468 546.4C164.372 546.736 164.24 547.072 164.072 547.408C163.928 547.72 163.784 548.044 163.64 548.38C163.52 548.62 163.4 548.848 163.28 549.064C163.16 549.256 163.052 549.472 162.956 549.712C162.74 550.192 162.524 550.672 162.308 551.152C162.092 551.608 161.852 552.064 161.588 552.52H161.804C161.996 552.52 162.164 552.532 162.308 552.556C162.476 552.58 162.644 552.568 162.812 552.52C162.956 552.472 163.088 552.46 163.208 552.484C163.352 552.508 163.484 552.52 163.604 552.52C164.012 552.52 164.432 552.52 164.864 552.52C165.296 552.496 165.776 552.508 166.304 552.556C166.568 552.58 166.808 552.58 167.024 552.556C167.264 552.532 167.504 552.52 167.744 552.52H168.068C168.044 552.424 168.008 552.352 167.96 552.304C167.936 552.232 167.9 552.16 167.852 552.088C167.756 551.896 167.648 551.728 167.528 551.584C167.432 551.44 167.348 551.26 167.276 551.044L166.016 548.524C165.968 548.404 165.92 548.248 165.872 548.056L164.864 545.968ZM186.172 546.364C186.196 545.788 186.244 545.116 186.316 544.348C186.388 543.556 186.46 542.872 186.532 542.296C186.484 541.936 186.484 541.576 186.532 541.216C186.58 540.832 186.592 540.46 186.568 540.1C186.568 539.956 186.568 539.812 186.568 539.668C186.592 539.5 186.604 539.344 186.604 539.2C186.724 538.624 186.784 538.036 186.784 537.436C186.784 536.836 186.844 536.176 186.964 535.456V535.024C187.444 535.144 187.888 535.252 188.296 535.348C188.728 535.42 189.172 535.456 189.628 535.456C189.508 535.816 189.436 536.176 189.412 536.536C189.388 536.896 189.376 537.244 189.376 537.58C189.376 538.276 189.34 538.972 189.268 539.668C189.22 540.34 189.196 541.024 189.196 541.72C189.196 541.864 189.184 542.02 189.16 542.188C189.136 542.332 189.124 542.476 189.124 542.62C189.148 542.812 189.148 543.052 189.124 543.34C189.124 543.628 189.124 543.928 189.124 544.24C189.124 544.552 189.124 544.852 189.124 545.14C189.148 545.428 189.184 545.668 189.232 545.86C189.16 546.436 189.136 547.024 189.16 547.624C189.208 548.2 189.22 548.776 189.196 549.352C189.148 549.76 189.136 550.156 189.16 550.54C189.184 550.9 189.196 551.284 189.196 551.692C189.196 552.1 189.196 552.508 189.196 552.916C189.22 553.324 189.232 553.732 189.232 554.14C189.232 554.548 189.196 555.04 189.124 555.616C189.052 556.168 189.028 556.648 189.052 557.056C189.052 557.632 189.028 558.136 188.98 558.568C188.956 559 188.944 559.456 188.944 559.936C188.944 560.152 188.884 560.284 188.764 560.332C188.644 560.404 188.452 560.44 188.188 560.44C187.852 560.488 187.552 560.5 187.288 560.476C187.024 560.452 186.724 560.44 186.388 560.44C186.148 560.44 186.004 560.392 185.956 560.296C185.932 560.2 185.92 560.104 185.92 560.008V559.36C185.896 559.336 185.872 559.3 185.848 559.252C185.824 559.204 185.8 559.168 185.776 559.144C185.752 559.144 185.728 559.132 185.704 559.108C185.584 559.228 185.416 559.312 185.2 559.36C184.984 559.408 184.768 559.492 184.552 559.612C184.192 559.852 183.784 560.02 183.328 560.116C182.896 560.212 182.44 560.26 181.96 560.26C181.624 560.26 181.324 560.248 181.06 560.224C180.82 560.224 180.592 560.176 180.376 560.08C180.256 560.08 180.172 560.032 180.124 559.936C180.1 559.864 180.028 559.828 179.908 559.828C179.428 559.588 179.008 559.336 178.648 559.072C178.288 558.832 177.94 558.544 177.604 558.208C177.244 557.848 176.968 557.488 176.776 557.128C176.608 556.768 176.404 556.348 176.164 555.868C176.068 555.532 175.996 555.196 175.948 554.86C175.924 554.5 175.852 554.152 175.732 553.816C175.732 553.336 175.744 552.88 175.768 552.448C175.816 551.992 175.948 551.596 176.164 551.26C176.284 550.66 176.512 550.132 176.848 549.676C177.184 549.22 177.58 548.824 178.036 548.488C178.276 548.248 178.552 548.056 178.864 547.912C179.2 547.768 179.548 547.636 179.908 547.516C180.148 547.516 180.412 547.516 180.7 547.516C181.012 547.492 181.288 547.42 181.528 547.3C181.864 547.3 182.164 547.312 182.428 547.336C182.716 547.336 183.04 547.396 183.4 547.516C183.496 547.636 183.64 547.72 183.832 547.768C184.024 547.816 184.18 547.9 184.3 548.02C184.516 548.14 184.744 548.26 184.984 548.38C185.224 548.476 185.464 548.572 185.704 548.668C185.824 548.572 185.884 548.428 185.884 548.236C185.884 548.02 185.944 547.78 186.064 547.516C186.064 547.396 186.076 547.24 186.1 547.048C186.148 546.856 186.172 546.628 186.172 546.364ZM181.96 550.792C181.504 551.032 181.156 551.404 180.916 551.908C180.7 552.388 180.592 552.856 180.592 553.312C180.592 553.576 180.628 553.78 180.7 553.924C180.772 554.068 180.808 554.248 180.808 554.464C180.808 554.824 180.916 555.124 181.132 555.364C181.348 555.604 181.624 555.856 181.96 556.12C182.248 556.36 182.644 556.36 183.148 556.12C183.364 555.856 183.604 555.604 183.868 555.364C184.156 555.1 184.3 554.74 184.3 554.284C184.42 553.804 184.444 553.384 184.372 553.024C184.3 552.664 184.204 552.304 184.084 551.944C183.964 551.608 183.748 551.332 183.436 551.116C183.124 550.9 182.788 550.792 182.428 550.792H181.96ZM195.651 555.868C195.699 556.348 195.711 556.78 195.687 557.164C195.663 557.548 195.627 557.908 195.579 558.244C195.579 558.388 195.543 558.496 195.471 558.568C195.231 558.616 194.955 558.664 194.643 558.712C194.331 558.736 194.043 558.736 193.779 558.712C193.563 558.688 193.347 558.7 193.131 558.748C192.915 558.772 192.759 558.784 192.663 558.784C192.663 558.64 192.651 558.508 192.627 558.388C192.603 558.268 192.603 558.1 192.627 557.884C192.651 557.692 192.651 557.488 192.627 557.272C192.627 557.056 192.627 556.852 192.627 556.66V554.896C192.603 554.344 192.591 553.78 192.591 553.204C192.591 552.628 192.579 552.244 192.555 552.052C192.531 551.836 192.531 551.62 192.555 551.404C192.603 551.188 192.627 550.972 192.627 550.756C192.603 550.42 192.591 550.084 192.591 549.748C192.615 549.388 192.627 549.04 192.627 548.704C192.627 548.416 192.615 548.044 192.591 547.588C192.567 547.108 192.579 546.724 192.627 546.436C192.819 546.388 193.059 546.364 193.347 546.364C193.635 546.364 193.947 546.352 194.283 546.328C194.547 546.304 194.811 546.292 195.075 546.292C195.339 546.292 195.531 546.292 195.651 546.292C195.699 546.292 195.711 546.364 195.687 546.508C195.687 546.628 195.687 546.712 195.687 546.76C195.663 547.36 195.663 547.888 195.687 548.344C195.711 548.776 195.699 549.232 195.651 549.712C195.675 550.192 195.675 550.612 195.651 550.972C195.651 551.308 195.627 551.716 195.579 552.196C195.579 552.268 195.579 552.46 195.579 552.772C195.579 553.084 195.591 553.444 195.615 553.852C195.639 554.236 195.651 554.62 195.651 555.004C195.651 555.364 195.651 555.652 195.651 555.868ZM192.591 543.988C192.567 543.868 192.555 543.688 192.555 543.448C192.579 543.208 192.591 542.956 192.591 542.692C192.591 542.572 192.579 542.464 192.555 542.368C192.555 542.272 192.555 542.176 192.555 542.08C192.555 542.032 192.555 541.996 192.555 541.972C192.579 541.948 192.591 541.912 192.591 541.864H195.183C195.303 541.864 195.375 541.876 195.399 541.9C195.423 541.9 195.435 541.96 195.435 542.08V544.42C195.291 544.444 195.063 544.456 194.751 544.456C194.463 544.456 194.163 544.456 193.851 544.456C193.539 544.456 193.251 544.456 192.987 544.456C192.747 544.432 192.627 544.396 192.627 544.348C192.603 544.276 192.591 544.156 192.591 543.988ZM205.603 549.28C205.315 549.328 205.051 549.4 204.811 549.496C204.571 549.592 204.343 549.772 204.127 550.036C203.791 550.372 203.551 550.756 203.407 551.188C203.287 551.62 203.227 552.112 203.227 552.664V553.564C203.347 553.804 203.431 554.068 203.479 554.356C203.527 554.644 203.671 554.896 203.911 555.112C204.031 555.328 204.187 555.544 204.379 555.76C204.571 555.976 204.763 556.216 204.955 556.48C205.075 556.552 205.231 556.612 205.423 556.66C205.615 556.684 205.771 556.756 205.891 556.876C206.203 556.996 206.563 557.068 206.971 557.092C207.379 557.092 207.751 557.092 208.087 557.092C208.255 557.068 208.423 557.032 208.591 556.984C208.759 556.912 209.023 556.876 209.383 556.876C209.503 556.828 209.599 556.876 209.671 557.02C209.743 557.14 209.815 557.296 209.887 557.488C209.959 557.608 210.031 557.764 210.103 557.956C210.175 558.124 210.235 558.28 210.283 558.424C210.331 558.52 210.379 558.616 210.427 558.712C210.499 558.784 210.535 558.892 210.535 559.036C210.487 559.06 210.427 559.096 210.355 559.144C210.283 559.216 210.199 559.276 210.103 559.324C210.055 559.444 209.947 559.516 209.779 559.54C209.611 559.588 209.479 559.66 209.383 559.756C208.519 560.188 207.643 560.404 206.755 560.404C206.539 560.404 206.335 560.404 206.143 560.404C205.951 560.428 205.711 560.428 205.423 560.404C205.207 560.404 204.919 560.344 204.559 560.224C204.415 560.224 204.199 560.224 203.911 560.224C203.623 560.224 203.407 560.212 203.263 560.188C203.143 560.164 203.023 560.116 202.903 560.044C202.807 559.972 202.699 559.912 202.579 559.864C202.459 559.816 202.339 559.768 202.219 559.72C202.099 559.672 201.979 559.624 201.859 559.576C201.595 559.456 201.355 559.264 201.139 559C200.947 558.76 200.731 558.532 200.491 558.316C200.275 558.124 200.035 557.872 199.771 557.56C199.531 557.224 199.387 556.948 199.339 556.732C199.243 556.468 199.111 556.18 198.943 555.868C198.799 555.556 198.715 555.232 198.691 554.896C198.643 554.752 198.619 554.632 198.619 554.536C198.619 554.44 198.619 554.344 198.619 554.248V552.664C198.619 552.112 198.631 551.62 198.655 551.188C198.703 550.732 198.835 550.288 199.051 549.856C199.171 549.616 199.279 549.352 199.375 549.064C199.495 548.776 199.675 548.512 199.915 548.272C199.915 548.152 199.963 548.044 200.059 547.948C200.155 547.828 200.263 547.732 200.383 547.66L200.995 546.976C201.259 546.856 201.463 546.748 201.607 546.652C201.751 546.532 201.919 546.412 202.111 546.292C202.447 546.172 202.771 546.076 203.083 546.004C203.395 545.908 203.671 545.86 203.911 545.86C204.295 545.788 204.607 545.728 204.847 545.68C205.111 545.608 205.447 545.644 205.855 545.788C206.071 545.812 206.287 545.848 206.503 545.896C206.743 545.92 206.959 545.98 207.151 546.076C207.343 546.124 207.487 546.16 207.583 546.184C207.679 546.208 207.799 546.244 207.943 546.292C208.183 546.34 208.411 546.424 208.627 546.544C208.867 546.664 209.083 546.784 209.275 546.904L209.527 546.976C209.551 546.976 209.551 547.072 209.527 547.264C209.527 547.432 209.503 547.612 209.455 547.804C209.407 547.924 209.383 548.056 209.383 548.2C209.383 548.32 209.383 548.5 209.383 548.74V549.388C209.383 549.436 209.347 549.496 209.275 549.568C209.251 549.592 209.227 549.604 209.203 549.604C209.083 549.604 208.975 549.592 208.879 549.568C208.783 549.52 208.675 549.496 208.555 549.496C208.387 549.448 208.183 549.388 207.943 549.316C207.703 549.22 207.499 549.172 207.331 549.172C207.019 549.172 206.719 549.172 206.431 549.172C206.167 549.172 205.891 549.208 205.603 549.28ZM219.666 549.28C219.378 549.328 219.114 549.4 218.874 549.496C218.634 549.592 218.406 549.772 218.19 550.036C217.854 550.372 217.614 550.756 217.47 551.188C217.35 551.62 217.29 552.112 217.29 552.664V553.564C217.41 553.804 217.494 554.068 217.542 554.356C217.59 554.644 217.734 554.896 217.974 555.112C218.094 555.328 218.25 555.544 218.442 555.76C218.634 555.976 218.826 556.216 219.018 556.48C219.138 556.552 219.294 556.612 219.486 556.66C219.678 556.684 219.834 556.756 219.954 556.876C220.266 556.996 220.626 557.068 221.034 557.092C221.442 557.092 221.814 557.092 222.15 557.092C222.318 557.068 222.486 557.032 222.654 556.984C222.822 556.912 223.086 556.876 223.446 556.876C223.566 556.828 223.662 556.876 223.734 557.02C223.806 557.14 223.878 557.296 223.95 557.488C224.022 557.608 224.094 557.764 224.166 557.956C224.238 558.124 224.298 558.28 224.346 558.424C224.394 558.52 224.442 558.616 224.49 558.712C224.562 558.784 224.598 558.892 224.598 559.036C224.55 559.06 224.49 559.096 224.418 559.144C224.346 559.216 224.262 559.276 224.166 559.324C224.118 559.444 224.01 559.516 223.842 559.54C223.674 559.588 223.542 559.66 223.446 559.756C222.582 560.188 221.706 560.404 220.818 560.404C220.602 560.404 220.398 560.404 220.206 560.404C220.014 560.428 219.774 560.428 219.486 560.404C219.27 560.404 218.982 560.344 218.622 560.224C218.478 560.224 218.262 560.224 217.974 560.224C217.686 560.224 217.47 560.212 217.326 560.188C217.206 560.164 217.086 560.116 216.966 560.044C216.87 559.972 216.762 559.912 216.642 559.864C216.522 559.816 216.402 559.768 216.282 559.72C216.162 559.672 216.042 559.624 215.922 559.576C215.658 559.456 215.418 559.264 215.202 559C215.01 558.76 214.794 558.532 214.554 558.316C214.338 558.124 214.098 557.872 213.834 557.56C213.594 557.224 213.45 556.948 213.402 556.732C213.306 556.468 213.174 556.18 213.006 555.868C212.862 555.556 212.778 555.232 212.754 554.896C212.706 554.752 212.682 554.632 212.682 554.536C212.682 554.44 212.682 554.344 212.682 554.248V552.664C212.682 552.112 212.694 551.62 212.718 551.188C212.766 550.732 212.898 550.288 213.114 549.856C213.234 549.616 213.342 549.352 213.438 549.064C213.558 548.776 213.738 548.512 213.978 548.272C213.978 548.152 214.026 548.044 214.122 547.948C214.218 547.828 214.326 547.732 214.446 547.66L215.058 546.976C215.322 546.856 215.526 546.748 215.67 546.652C215.814 546.532 215.982 546.412 216.174 546.292C216.51 546.172 216.834 546.076 217.146 546.004C217.458 545.908 217.734 545.86 217.974 545.86C218.358 545.788 218.67 545.728 218.91 545.68C219.174 545.608 219.51 545.644 219.918 545.788C220.134 545.812 220.35 545.848 220.566 545.896C220.806 545.92 221.022 545.98 221.214 546.076C221.406 546.124 221.55 546.16 221.646 546.184C221.742 546.208 221.862 546.244 222.006 546.292C222.246 546.34 222.474 546.424 222.69 546.544C222.93 546.664 223.146 546.784 223.338 546.904L223.59 546.976C223.614 546.976 223.614 547.072 223.59 547.264C223.59 547.432 223.566 547.612 223.518 547.804C223.47 547.924 223.446 548.056 223.446 548.2C223.446 548.32 223.446 548.5 223.446 548.74V549.388C223.446 549.436 223.41 549.496 223.338 549.568C223.314 549.592 223.29 549.604 223.266 549.604C223.146 549.604 223.038 549.592 222.942 549.568C222.846 549.52 222.738 549.496 222.618 549.496C222.45 549.448 222.246 549.388 222.006 549.316C221.766 549.22 221.562 549.172 221.394 549.172C221.082 549.172 220.782 549.172 220.494 549.172C220.23 549.172 219.954 549.208 219.666 549.28ZM230.596 555.868C230.644 556.348 230.656 556.78 230.632 557.164C230.608 557.548 230.572 557.908 230.524 558.244C230.524 558.388 230.488 558.496 230.416 558.568C230.176 558.616 229.9 558.664 229.588 558.712C229.276 558.736 228.988 558.736 228.724 558.712C228.508 558.688 228.292 558.7 228.076 558.748C227.86 558.772 227.704 558.784 227.608 558.784C227.608 558.64 227.596 558.508 227.572 558.388C227.548 558.268 227.548 558.1 227.572 557.884C227.596 557.692 227.596 557.488 227.572 557.272C227.572 557.056 227.572 556.852 227.572 556.66V554.896C227.548 554.344 227.536 553.78 227.536 553.204C227.536 552.628 227.524 552.244 227.5 552.052C227.476 551.836 227.476 551.62 227.5 551.404C227.548 551.188 227.572 550.972 227.572 550.756C227.548 550.42 227.536 550.084 227.536 549.748C227.56 549.388 227.572 549.04 227.572 548.704C227.572 548.416 227.56 548.044 227.536 547.588C227.512 547.108 227.524 546.724 227.572 546.436C227.764 546.388 228.004 546.364 228.292 546.364C228.58 546.364 228.892 546.352 229.228 546.328C229.492 546.304 229.756 546.292 230.02 546.292C230.284 546.292 230.476 546.292 230.596 546.292C230.644 546.292 230.656 546.364 230.632 546.508C230.632 546.628 230.632 546.712 230.632 546.76C230.608 547.36 230.608 547.888 230.632 548.344C230.656 548.776 230.644 549.232 230.596 549.712C230.62 550.192 230.62 550.612 230.596 550.972C230.596 551.308 230.572 551.716 230.524 552.196C230.524 552.268 230.524 552.46 230.524 552.772C230.524 553.084 230.536 553.444 230.56 553.852C230.584 554.236 230.596 554.62 230.596 555.004C230.596 555.364 230.596 555.652 230.596 555.868ZM227.536 543.988C227.512 543.868 227.5 543.688 227.5 543.448C227.524 543.208 227.536 542.956 227.536 542.692C227.536 542.572 227.524 542.464 227.5 542.368C227.5 542.272 227.5 542.176 227.5 542.08C227.5 542.032 227.5 541.996 227.5 541.972C227.524 541.948 227.536 541.912 227.536 541.864H230.128C230.248 541.864 230.32 541.876 230.344 541.9C230.368 541.9 230.38 541.96 230.38 542.08V544.42C230.236 544.444 230.008 544.456 229.696 544.456C229.408 544.456 229.108 544.456 228.796 544.456C228.484 544.456 228.196 544.456 227.932 544.456C227.692 544.432 227.572 544.396 227.572 544.348C227.548 544.276 227.536 544.156 227.536 543.988ZM236.84 545.932C237.008 545.884 237.212 545.812 237.452 545.716C237.692 545.62 237.932 545.572 238.172 545.572C238.484 545.572 238.772 545.572 239.036 545.572C239.3 545.548 239.588 545.536 239.9 545.536C240.14 545.536 240.368 545.548 240.584 545.572C240.824 545.572 241.04 545.608 241.232 545.68C241.28 545.68 241.34 545.692 241.412 545.716C241.484 545.74 241.58 545.812 241.7 545.932C241.94 546.004 242.168 546.124 242.384 546.292C242.6 546.46 242.792 546.664 242.96 546.904C243.152 547.144 243.32 547.396 243.464 547.66C243.632 547.9 243.776 548.14 243.896 548.38C244.016 548.572 244.088 548.824 244.112 549.136C244.16 549.448 244.22 549.7 244.292 549.892C244.292 550.228 244.304 550.552 244.328 550.864C244.376 551.176 244.4 551.5 244.4 551.836C244.4 552.388 244.388 552.916 244.364 553.42C244.34 553.924 244.328 554.452 244.328 555.004L244.256 556.192C244.256 556.288 244.208 556.456 244.112 556.696C244.016 556.936 243.956 557.116 243.932 557.236C243.86 557.476 243.764 557.764 243.644 558.1C243.524 558.412 243.44 558.592 243.392 558.64C243.272 558.76 243.188 558.868 243.14 558.964C243.092 559.06 243.044 559.156 242.996 559.252C242.972 559.348 242.924 559.432 242.852 559.504C242.804 559.576 242.708 559.648 242.564 559.72C242.444 559.768 242.3 559.84 242.132 559.936C241.964 560.056 241.808 560.164 241.664 560.26C241.544 560.308 241.484 560.344 241.484 560.368C241.484 560.416 241.4 560.464 241.232 560.512L240.584 560.656C240.296 560.704 240.056 560.716 239.864 560.692C239.696 560.668 239.504 560.656 239.288 560.656C238.616 560.656 237.944 560.524 237.272 560.26C237.056 560.26 236.84 560.212 236.624 560.116C236.432 560.02 236.288 559.912 236.192 559.792C236.072 559.696 235.952 559.588 235.832 559.468C235.712 559.372 235.592 559.264 235.472 559.144C235.28 558.928 235.124 558.712 235.004 558.496C234.884 558.28 234.764 558.052 234.644 557.812C234.524 557.548 234.392 557.284 234.248 557.02C234.104 556.732 234.008 556.42 233.96 556.084C233.912 555.532 233.864 555.028 233.816 554.572C233.792 554.116 233.78 553.66 233.78 553.204V551.728C233.756 551.68 233.744 551.584 233.744 551.44C233.744 551.296 233.756 551.2 233.78 551.152C233.78 551.032 233.78 550.912 233.78 550.792C233.804 550.648 233.828 550.516 233.852 550.396C233.876 550.204 233.888 550.012 233.888 549.82C233.888 549.628 233.948 549.436 234.068 549.244C234.044 549.292 234.056 549.256 234.104 549.136C234.176 548.992 234.248 548.848 234.32 548.704C234.392 548.536 234.452 548.392 234.5 548.272C234.548 548.152 234.572 548.104 234.572 548.128L234.824 547.66C234.896 547.588 234.968 547.504 235.04 547.408C235.112 547.312 235.208 547.204 235.328 547.084C235.472 546.964 235.652 546.808 235.868 546.616C236.108 546.424 236.432 546.196 236.84 545.932ZM239.468 551.908C239.372 551.908 239.276 551.956 239.18 552.052C239.108 552.148 239.06 552.232 239.036 552.304C238.868 552.664 238.784 552.964 238.784 553.204C238.784 553.852 239.012 554.284 239.468 554.5C239.588 554.5 239.684 554.464 239.756 554.392C239.852 554.296 239.9 554.2 239.9 554.104C239.9 553.864 239.924 553.588 239.972 553.276C240.044 552.964 240.02 552.64 239.9 552.304C239.78 552.184 239.708 552.088 239.684 552.016C239.66 551.944 239.588 551.908 239.468 551.908ZM247.54 546.724C247.54 546.652 247.528 546.58 247.504 546.508C247.48 546.436 247.48 546.364 247.504 546.292C247.528 546.292 247.564 546.292 247.612 546.292C247.684 546.268 247.744 546.256 247.792 546.256H248.008C248.128 546.232 248.248 546.232 248.368 546.256C248.488 546.256 248.608 546.244 248.728 546.22H249.808C249.856 546.22 249.904 546.244 249.952 546.292C250 546.34 250.036 546.376 250.06 546.4L250.132 546.724C250.132 546.796 250.144 546.88 250.168 546.976C250.216 547.168 250.24 547.372 250.24 547.588C250.264 547.66 250.276 547.732 250.276 547.804C250.276 547.948 250.288 548.02 250.312 548.02C250.408 547.924 250.48 547.828 250.528 547.732C250.576 547.612 250.636 547.528 250.708 547.48C250.78 547.408 250.828 547.36 250.852 547.336C250.9 547.312 250.936 547.288 250.96 547.264C251.008 547.24 251.068 547.216 251.14 547.192C251.212 547.144 251.32 547.072 251.464 546.976C251.68 546.856 251.872 546.76 252.04 546.688C252.232 546.616 252.52 546.484 252.904 546.292C252.976 546.268 253.096 546.232 253.264 546.184C253.456 546.136 253.66 546.1 253.876 546.076C254.092 546.028 254.308 546.004 254.524 546.004C254.764 545.98 254.968 545.968 255.136 545.968C255.4 545.992 255.616 546.028 255.784 546.076C255.952 546.1 256.18 546.136 256.468 546.184C256.588 546.208 256.78 546.232 257.044 546.256C257.332 546.28 257.524 546.316 257.62 546.364C258.22 546.7 258.7 546.988 259.06 547.228C259.42 547.468 259.732 547.792 259.996 548.2C260.044 548.248 260.116 548.308 260.212 548.38C260.308 548.428 260.416 548.512 260.536 548.632C260.656 548.752 260.764 548.92 260.86 549.136C260.98 549.328 261.04 549.448 261.04 549.496C261.136 549.904 261.244 550.24 261.364 550.504C261.484 550.744 261.556 551.068 261.58 551.476C261.604 551.668 261.664 551.884 261.76 552.124C261.856 552.34 261.904 552.568 261.904 552.808C261.904 553.048 261.916 553.324 261.94 553.636C261.964 553.924 261.952 554.344 261.904 554.896C261.904 555.064 261.904 555.22 261.904 555.364C261.928 555.508 261.94 555.652 261.94 555.796V557.452C261.94 557.62 261.94 557.776 261.94 557.92C261.94 558.064 261.928 558.208 261.904 558.352C261.904 558.544 261.904 558.712 261.904 558.856C261.928 559 261.94 559.168 261.94 559.36C261.94 559.408 261.94 559.456 261.94 559.504C261.94 559.576 261.916 559.624 261.868 559.648C261.82 559.672 261.748 559.684 261.652 559.684C261.58 559.684 261.52 559.684 261.472 559.684C261.256 559.684 261.052 559.684 260.86 559.684C260.668 559.708 260.464 559.708 260.248 559.684L259.168 559.576C259.072 559.552 258.94 559.552 258.772 559.576C258.604 559.6 258.496 559.564 258.448 559.468C258.424 558.916 258.412 558.532 258.412 558.316C258.436 558.076 258.448 557.86 258.448 557.668C258.448 557.548 258.436 557.404 258.412 557.236C258.388 557.044 258.364 556.792 258.34 556.48L258.448 554.572C258.448 554.332 258.436 554.152 258.412 554.032C258.412 553.888 258.4 553.78 258.376 553.708C258.376 553.612 258.364 553.504 258.34 553.384C258.34 553.264 258.34 553.072 258.34 552.808C258.34 552.376 258.256 551.944 258.088 551.512C257.944 551.08 257.764 550.648 257.548 550.216C257.428 549.976 257.272 549.76 257.08 549.568C256.888 549.376 256.636 549.208 256.324 549.064C256.276 549.04 256.216 549.016 256.144 548.992C256.072 548.968 256.012 548.956 255.964 548.956L255.136 548.884C254.728 548.86 254.308 548.932 253.876 549.1C253.444 549.268 253.18 549.436 253.084 549.604C252.916 549.892 252.784 550.108 252.688 550.252C252.592 550.396 252.496 550.54 252.4 550.684C252.376 550.756 252.34 550.888 252.292 551.08C252.244 551.248 252.184 551.464 252.112 551.728C252.064 551.968 252.016 552.232 251.968 552.52C251.92 552.784 251.896 553.024 251.896 553.24C251.896 553.408 251.896 553.576 251.896 553.744C251.896 553.888 251.884 554.032 251.86 554.176L251.788 555.184L251.572 556.552C251.572 556.792 251.572 557.056 251.572 557.344C251.572 557.608 251.56 557.86 251.536 558.1V558.928C251.392 559.024 251.272 559.072 251.176 559.072C250.912 559.12 250.72 559.168 250.6 559.216C250.504 559.264 250.312 559.276 250.024 559.252C249.76 559.228 249.412 559.228 248.98 559.252C248.548 559.3 248.2 559.3 247.936 559.252C247.672 559.204 247.54 559.168 247.54 559.144C247.54 559.144 247.54 559.084 247.54 558.964C247.54 558.868 247.54 558.724 247.54 558.532C247.564 558.316 247.576 558.1 247.576 557.884C247.576 557.644 247.576 557.416 247.576 557.2C247.6 556.984 247.612 556.816 247.612 556.696C247.612 556.264 247.6 555.904 247.576 555.616C247.552 555.328 247.54 554.968 247.54 554.536C247.54 554.176 247.528 553.888 247.504 553.672C247.504 553.432 247.492 553.132 247.468 552.772C247.468 552.58 247.48 552.34 247.504 552.052C247.528 551.74 247.54 551.416 247.54 551.08C247.54 550.672 247.528 550.276 247.504 549.892C247.504 549.508 247.504 549.22 247.504 549.028C247.48 548.62 247.468 548.236 247.468 547.876C247.468 547.492 247.492 547.108 247.54 546.724ZM272.737 557.164C272.977 556.948 273.157 556.72 273.277 556.48C273.397 556.216 273.457 555.904 273.457 555.544C273.457 555.328 273.397 555.112 273.277 554.896C273.157 554.68 272.977 554.512 272.737 554.392C272.161 554.176 271.573 553.96 270.973 553.744C270.373 553.528 269.725 553.36 269.029 553.24C268.693 553.12 268.333 553 267.949 552.88C267.589 552.76 267.169 552.64 266.689 552.52C265.729 552.064 265.129 551.296 264.889 550.216C264.889 549.76 264.889 549.316 264.889 548.884C264.889 548.452 264.997 548.008 265.213 547.552C265.357 547.216 265.477 546.976 265.573 546.832C265.693 546.664 265.801 546.544 265.897 546.472C266.017 546.376 266.125 546.304 266.221 546.256C266.341 546.184 266.473 546.088 266.617 545.968C267.169 545.752 267.637 545.596 268.021 545.5C268.429 545.38 268.921 545.26 269.497 545.14C269.737 545.02 269.965 544.948 270.181 544.924C270.421 544.9 270.649 544.888 270.865 544.888H272.809C273.169 544.888 273.505 544.888 273.817 544.888C274.129 544.864 274.453 544.864 274.789 544.888C275.317 544.912 275.809 544.96 276.265 545.032C276.721 545.104 277.249 545.2 277.849 545.32C278.401 545.392 278.797 545.476 279.037 545.572C278.989 545.692 278.941 545.884 278.893 546.148C278.869 546.412 278.845 546.676 278.821 546.94C278.821 546.988 278.809 547.036 278.785 547.084C278.785 547.108 278.785 547.144 278.785 547.192C278.785 547.312 278.749 547.384 278.677 547.408C278.629 547.432 278.569 547.432 278.497 547.408C278.449 547.384 278.389 547.36 278.317 547.336C277.909 547.288 277.489 547.264 277.057 547.264C276.625 547.264 276.193 547.276 275.761 547.3C275.329 547.324 274.897 547.372 274.465 547.444C274.033 547.516 273.613 547.576 273.205 547.624C273.013 547.672 272.833 547.72 272.665 547.768C272.497 547.792 272.329 547.828 272.161 547.876C271.969 547.924 271.789 547.984 271.621 548.056C271.477 548.128 271.309 548.224 271.117 548.344C270.877 548.632 270.709 548.896 270.613 549.136C270.493 549.424 270.433 549.712 270.433 550C270.385 550.12 270.385 550.312 270.433 550.576C270.481 550.816 270.577 551.02 270.721 551.188C271.033 551.524 271.321 551.74 271.585 551.836C272.041 551.956 272.473 552.064 272.881 552.16C273.313 552.256 273.697 552.352 274.033 552.448C274.153 552.448 274.285 552.472 274.429 552.52C274.573 552.568 274.705 552.592 274.825 552.592C275.305 552.64 275.737 552.724 276.121 552.844C276.505 552.94 276.925 553.072 277.381 553.24C277.717 553.36 278.053 553.492 278.389 553.636C278.749 553.756 279.097 553.924 279.433 554.14C279.697 554.5 279.889 554.812 280.009 555.076C280.153 555.34 280.285 555.652 280.405 556.012V556.948C280.405 557.188 280.357 557.416 280.261 557.632C280.165 557.848 280.057 558.016 279.937 558.136C279.697 558.76 279.229 559.3 278.533 559.756C278.077 560.092 277.597 560.368 277.093 560.584C276.613 560.824 276.085 560.992 275.509 561.088C274.693 561.352 273.865 561.496 273.025 561.52C272.209 561.568 271.345 561.532 270.433 561.412L268.453 561.232C268.237 561.208 267.985 561.172 267.697 561.124C267.409 561.076 267.121 561.004 266.833 560.908C266.425 560.788 266.125 560.716 265.933 560.692C265.765 560.692 265.669 560.668 265.645 560.62C265.621 560.572 265.597 560.524 265.573 560.476C265.549 560.452 265.537 560.428 265.537 560.404C265.417 560.14 265.345 559.888 265.321 559.648C265.297 559.432 265.225 559.156 265.105 558.82C265.057 558.7 265.021 558.592 264.997 558.496C264.973 558.4 264.949 558.304 264.925 558.208V558.1C264.925 558.052 264.913 558.016 264.889 557.992C264.889 557.968 264.901 557.932 264.925 557.884C265.045 557.884 265.141 557.896 265.213 557.92C265.309 557.944 265.417 557.956 265.537 557.956C265.825 558.028 266.149 558.1 266.509 558.172C266.893 558.244 267.193 558.28 267.409 558.28C267.625 558.28 267.865 558.292 268.129 558.316C268.393 558.316 268.693 558.316 269.029 558.316C269.317 558.34 269.617 558.352 269.929 558.352C270.241 558.352 270.553 558.292 270.865 558.172C270.937 558.1 271.057 558.028 271.225 557.956C271.393 557.884 271.573 557.812 271.765 557.74C271.957 557.644 272.137 557.56 272.305 557.488C272.497 557.392 272.641 557.284 272.737 557.164ZM305.208 559.864L304.956 559.9C304.836 559.924 304.752 559.924 304.704 559.9C304.68 559.9 304.572 559.9 304.38 559.9C304.356 559.9 304.284 559.912 304.164 559.936C304.044 559.96 303.912 559.984 303.768 560.008C303.624 560.032 303.468 560.032 303.3 560.008C303.132 560.008 303 559.984 302.904 559.936C302.784 559.936 302.7 559.924 302.652 559.9C302.604 559.876 302.52 559.864 302.4 559.864C302.28 559.768 302.208 559.624 302.184 559.432C302.184 559.24 302.184 559.084 302.184 558.964V558.064L301.896 558.46L301.248 559.072C301.008 559.24 300.804 559.372 300.636 559.468C300.492 559.588 300.312 559.708 300.096 559.828C299.736 560.044 299.34 560.188 298.908 560.26C298.5 560.332 298.116 560.368 297.756 560.368C297.396 560.368 297.012 560.296 296.604 560.152C296.22 560.008 295.872 559.876 295.56 559.756C295.464 559.732 295.368 559.684 295.272 559.612C295.2 559.564 295.128 559.516 295.056 559.468C294.912 559.348 294.744 559.228 294.552 559.108C294.384 558.988 294.24 558.868 294.12 558.748C294.048 558.7 293.976 558.652 293.904 558.604C293.856 558.532 293.784 558.472 293.688 558.424C293.568 558.352 293.46 558.232 293.364 558.064C293.244 557.8 293.088 557.548 292.896 557.308C292.728 557.044 292.584 556.744 292.464 556.408C292.392 556.144 292.296 555.892 292.176 555.652C292.056 555.412 291.996 555.184 291.996 554.968C291.996 554.848 291.984 554.644 291.96 554.356C291.936 554.068 291.924 553.864 291.924 553.744C291.924 553.528 291.924 553.36 291.924 553.24C291.948 553.12 291.96 552.94 291.96 552.7C291.96 552.58 291.972 552.46 291.996 552.34C292.044 552.196 292.092 552.016 292.14 551.8C292.188 551.536 292.224 551.26 292.248 550.972C292.272 550.66 292.308 550.408 292.356 550.216C292.524 549.904 292.632 549.712 292.68 549.64C292.752 549.568 292.812 549.436 292.86 549.244C292.908 549.1 292.968 548.92 293.04 548.704C293.136 548.464 293.268 548.284 293.436 548.164C293.508 548.116 293.616 548.032 293.76 547.912C293.904 547.792 294.048 547.66 294.192 547.516C294.36 547.372 294.504 547.252 294.624 547.156C294.744 547.036 294.828 546.976 294.876 546.976L295.524 546.688C295.716 546.616 295.932 546.568 296.172 546.544C296.412 546.496 296.64 546.472 296.856 546.472L297.972 546.436C298.092 546.436 298.224 546.436 298.368 546.436C298.536 546.436 298.644 546.448 298.692 546.472C298.812 546.472 298.932 546.508 299.052 546.58C299.172 546.652 299.292 546.688 299.412 546.688C299.532 546.688 299.676 546.736 299.844 546.832C300.036 546.904 300.192 547 300.312 547.12C300.552 547.216 300.732 547.336 300.852 547.48C300.996 547.6 301.128 547.72 301.248 547.84C301.368 547.96 301.476 548.08 301.572 548.2C301.692 548.296 301.812 548.404 301.932 548.524C301.932 548.596 301.98 548.656 302.076 548.704C302.124 548.728 302.16 548.752 302.184 548.776C302.232 548.728 302.256 548.632 302.256 548.488C302.28 548.344 302.328 548.212 302.4 548.092C302.424 547.756 302.436 547.456 302.436 547.192C302.46 546.904 302.484 546.712 302.508 546.616C302.484 546.52 302.496 546.388 302.544 546.22C302.592 546.028 302.676 545.956 302.796 546.004C302.844 545.98 302.952 545.98 303.12 546.004C303.288 546.028 303.48 546.064 303.696 546.112C303.912 546.136 304.128 546.16 304.344 546.184C304.584 546.208 304.788 546.22 304.956 546.22C304.98 546.22 304.992 546.28 304.992 546.4C304.992 546.52 304.98 546.616 304.956 546.688L305.172 550.144V554.032C305.172 554.104 305.16 554.176 305.136 554.248C305.136 554.32 305.136 554.392 305.136 554.464C305.16 554.68 305.172 554.908 305.172 555.148C305.172 555.364 305.172 555.592 305.172 555.832C305.196 556 305.196 556.18 305.172 556.372C305.172 556.54 305.172 556.72 305.172 556.912C305.172 557.056 305.172 557.26 305.172 557.524C305.196 557.764 305.208 558.016 305.208 558.28C305.208 558.544 305.208 558.796 305.208 559.036C305.208 559.3 305.208 559.516 305.208 559.684V559.864ZM300.564 554.428V554.32C300.564 554.176 300.588 553.864 300.636 553.384C300.684 552.88 300.576 552.268 300.312 551.548C300.24 551.356 300.132 551.152 299.988 550.936C299.844 550.72 299.616 550.552 299.304 550.432C299.136 550.384 298.98 550.336 298.836 550.288C298.692 550.216 298.536 550.192 298.368 550.216C298.2 550.264 297.984 550.372 297.72 550.54C297.48 550.708 297.276 550.912 297.108 551.152C296.988 551.272 296.916 551.404 296.892 551.548C296.868 551.692 296.844 551.86 296.82 552.052C296.748 552.364 296.688 552.604 296.64 552.772C296.616 552.94 296.604 553.156 296.604 553.42C296.604 553.9 296.736 554.32 297 554.68C297.288 555.04 297.468 555.28 297.54 555.4C297.612 555.472 297.672 555.52 297.72 555.544C297.792 555.544 297.888 555.604 298.008 555.724C298.248 555.844 298.476 555.868 298.692 555.796C298.908 555.7 299.148 555.592 299.412 555.472H299.628C299.844 555.352 300.024 555.232 300.168 555.112C300.312 554.992 300.444 554.812 300.564 554.572V554.428ZM321.087 549.712C321.111 549.76 321.123 549.88 321.123 550.072C321.123 550.264 321.123 550.408 321.123 550.504C321.075 550.624 321.051 550.744 321.051 550.864C321.051 550.96 321.051 551.068 321.051 551.188C321.051 551.332 321.063 551.608 321.087 552.016C321.111 552.4 321.123 552.676 321.123 552.844V553.636C321.123 553.852 321.123 554.068 321.123 554.284C321.147 554.5 321.159 554.716 321.159 554.932C321.159 555.1 321.147 555.268 321.123 555.436C321.099 555.58 321.099 555.736 321.123 555.904C321.123 556.048 321.135 556.192 321.159 556.336C321.183 556.456 321.195 556.588 321.195 556.732V560.008C321.195 560.128 321.207 560.248 321.231 560.368C321.279 560.488 321.267 560.536 321.195 560.512C320.955 560.512 320.679 560.536 320.367 560.584C320.055 560.656 319.767 560.692 319.503 560.692C319.287 560.692 319.095 560.68 318.927 560.656C318.783 560.632 318.579 560.56 318.315 560.44V559.972C318.195 559.516 318.123 559.108 318.099 558.748C318.099 558.364 318.099 558.004 318.099 557.668C318.099 557.404 318.099 557.164 318.099 556.948C318.099 556.708 318.123 556.468 318.171 556.228C318.171 556.108 318.147 556.012 318.099 555.94C318.099 555.916 318.087 555.856 318.063 555.76C318.063 555.64 318.063 555.52 318.063 555.4C318.063 555.28 318.063 555.172 318.063 555.076C318.063 554.956 318.063 554.872 318.063 554.824V553.312C318.063 553.024 318.051 552.736 318.027 552.448C318.027 552.16 318.051 551.872 318.099 551.584C318.123 551.56 318.135 551.452 318.135 551.26C318.159 551.044 318.183 550.816 318.207 550.576C318.231 550.312 318.243 550.072 318.243 549.856C318.267 549.616 318.279 549.472 318.279 549.424C318.303 549.04 318.303 548.656 318.279 548.272C318.279 547.888 318.291 547.516 318.315 547.156C318.315 546.46 318.303 545.788 318.279 545.14C318.279 544.468 318.291 543.796 318.315 543.124C318.315 542.692 318.315 542.272 318.315 541.864C318.315 541.432 318.303 541.012 318.279 540.604C318.255 540.388 318.243 540.22 318.243 540.1C318.267 539.98 318.279 539.872 318.279 539.776C318.303 539.656 318.315 539.536 318.315 539.416C318.339 539.296 318.339 539.116 318.315 538.876C318.315 538.636 318.327 538.408 318.351 538.192C318.375 537.952 318.387 537.724 318.387 537.508C318.387 537.268 318.375 537.064 318.351 536.896C318.351 536.728 318.351 536.524 318.351 536.284L318.531 536.104C318.771 536.104 319.035 536.116 319.323 536.14C319.611 536.164 319.863 536.164 320.079 536.14C320.271 536.116 320.415 536.104 320.511 536.104C320.607 536.104 320.751 536.104 320.943 536.104C321.063 536.104 321.159 536.14 321.231 536.212C321.279 537.004 321.279 537.784 321.231 538.552C321.183 539.32 321.159 540.124 321.159 540.964V543.484C321.135 544.348 321.099 545.152 321.051 545.896C321.027 546.64 321.015 547.372 321.015 548.092C321.015 548.356 321.027 548.632 321.051 548.92C321.075 549.184 321.087 549.448 321.087 549.712ZM335.25 552.088C335.25 552.208 335.19 552.328 335.07 552.448C334.998 552.52 334.89 552.568 334.746 552.592C334.602 552.616 334.47 552.628 334.35 552.628C334.182 552.676 333.978 552.7 333.738 552.7C333.498 552.7 333.294 552.7 333.126 552.7C332.79 552.7 332.538 552.712 332.37 552.736C332.202 552.736 331.926 552.76 331.542 552.808L329.382 552.988V553.42C329.382 553.684 329.418 553.948 329.49 554.212C329.562 554.452 329.694 554.704 329.886 554.968C330.006 555.16 330.15 555.34 330.318 555.508C330.486 555.676 330.654 555.784 330.822 555.832C330.966 555.88 331.098 555.928 331.218 555.976C331.338 556.024 331.446 556.072 331.542 556.12C331.662 556.144 331.77 556.144 331.866 556.12C332.514 556.12 332.982 556.048 333.27 555.904C333.582 555.76 333.954 555.58 334.386 555.364C334.482 555.364 334.578 555.316 334.674 555.22C334.794 555.124 334.878 555.064 334.926 555.04C335.046 554.992 335.214 554.872 335.43 554.68C335.67 554.488 335.85 554.368 335.97 554.32C336.042 554.368 336.066 554.536 336.042 554.824C336.018 555.088 336.03 555.34 336.078 555.58V555.976V556.696C335.958 556.84 335.862 556.948 335.79 557.02C335.742 557.068 335.694 557.116 335.646 557.164C335.622 557.212 335.574 557.272 335.502 557.344C335.43 557.416 335.322 557.524 335.178 557.668C334.746 558.1 334.29 558.388 333.81 558.532C333.546 558.676 333.258 558.784 332.946 558.856C332.634 558.904 332.382 558.964 332.19 559.036C332.07 559.06 331.962 559.072 331.866 559.072C331.77 559.096 331.674 559.108 331.578 559.108H331.29C330.834 559.108 330.39 559.096 329.958 559.072C329.526 559.072 329.07 558.952 328.59 558.712C328.422 558.736 328.182 558.688 327.87 558.568C327.582 558.448 327.39 558.328 327.294 558.208C327.03 558.064 326.79 557.884 326.574 557.668C326.382 557.452 326.166 557.26 325.926 557.092C325.59 556.852 325.35 556.6 325.206 556.336C325.062 556.072 324.93 555.796 324.81 555.508C324.69 555.292 324.582 555.052 324.486 554.788C324.39 554.524 324.294 554.26 324.198 553.996C324.198 553.732 324.186 553.48 324.162 553.24C324.162 553 324.162 552.76 324.162 552.52V551.188C324.162 550.756 324.246 550.24 324.414 549.64C324.606 549.04 324.834 548.524 325.098 548.092C325.17 547.996 325.254 547.9 325.35 547.804C325.422 547.708 325.506 547.612 325.602 547.516C325.722 547.42 325.842 547.312 325.962 547.192C326.034 547.168 326.106 547.132 326.178 547.084C326.274 547.036 326.406 546.964 326.574 546.868C326.646 546.82 326.73 546.736 326.826 546.616C326.946 546.496 327.102 546.412 327.294 546.364C327.558 546.268 327.81 546.172 328.05 546.076C328.29 545.956 328.47 545.896 328.59 545.896C328.758 545.896 329.058 545.908 329.49 545.932C329.946 545.956 330.378 545.98 330.786 546.004C331.002 546.028 331.182 546.064 331.326 546.112C331.47 546.16 331.578 546.184 331.65 546.184C331.842 546.208 331.998 546.232 332.118 546.256C332.262 546.28 332.406 546.316 332.55 546.364C332.982 546.508 333.294 546.664 333.486 546.832C333.702 546.976 333.882 547.132 334.026 547.3C334.122 547.42 334.206 547.564 334.278 547.732C334.374 547.876 334.47 548.008 334.566 548.128C334.686 548.272 334.794 548.476 334.89 548.74C335.01 548.98 335.094 549.22 335.142 549.46C335.19 549.652 335.226 549.904 335.25 550.216C335.274 550.528 335.286 550.804 335.286 551.044C335.286 551.284 335.274 551.464 335.25 551.584C335.25 551.704 335.25 551.872 335.25 552.088ZM332.154 550C332.154 549.952 332.154 549.868 332.154 549.748C332.154 549.604 332.13 549.508 332.082 549.46C331.89 549.148 331.614 548.968 331.254 548.92C330.918 548.848 330.618 548.836 330.354 548.884C330.186 548.932 330.078 548.992 330.03 549.064C329.982 549.136 329.91 549.244 329.814 549.388C329.766 549.436 329.73 549.484 329.706 549.532C329.682 549.58 329.646 549.628 329.598 549.676C329.55 549.724 329.514 549.796 329.49 549.892C329.49 549.964 329.478 550.036 329.454 550.108C329.406 550.228 329.382 550.312 329.382 550.36C329.382 550.408 329.406 550.528 329.454 550.72C329.55 550.768 329.73 550.816 329.994 550.864C330.282 550.888 330.57 550.9 330.858 550.9C331.17 550.9 331.458 550.888 331.722 550.864C332.01 550.816 332.202 550.768 332.298 550.72C332.322 550.696 332.298 550.636 332.226 550.54C332.178 550.42 332.154 550.24 332.154 550ZM346.144 557.164C346.384 556.948 346.564 556.72 346.684 556.48C346.804 556.216 346.864 555.904 346.864 555.544C346.864 555.328 346.804 555.112 346.684 554.896C346.564 554.68 346.384 554.512 346.144 554.392C345.568 554.176 344.98 553.96 344.38 553.744C343.78 553.528 343.132 553.36 342.436 553.24C342.1 553.12 341.74 553 341.356 552.88C340.996 552.76 340.576 552.64 340.096 552.52C339.136 552.064 338.536 551.296 338.296 550.216C338.296 549.76 338.296 549.316 338.296 548.884C338.296 548.452 338.404 548.008 338.62 547.552C338.764 547.216 338.884 546.976 338.98 546.832C339.1 546.664 339.208 546.544 339.304 546.472C339.424 546.376 339.532 546.304 339.628 546.256C339.748 546.184 339.88 546.088 340.024 545.968C340.576 545.752 341.044 545.596 341.428 545.5C341.836 545.38 342.328 545.26 342.904 545.14C343.144 545.02 343.372 544.948 343.588 544.924C343.828 544.9 344.056 544.888 344.272 544.888H346.216C346.576 544.888 346.912 544.888 347.224 544.888C347.536 544.864 347.86 544.864 348.196 544.888C348.724 544.912 349.216 544.96 349.672 545.032C350.128 545.104 350.656 545.2 351.256 545.32C351.808 545.392 352.204 545.476 352.444 545.572C352.396 545.692 352.348 545.884 352.3 546.148C352.276 546.412 352.252 546.676 352.228 546.94C352.228 546.988 352.216 547.036 352.192 547.084C352.192 547.108 352.192 547.144 352.192 547.192C352.192 547.312 352.156 547.384 352.084 547.408C352.036 547.432 351.976 547.432 351.904 547.408C351.856 547.384 351.796 547.36 351.724 547.336C351.316 547.288 350.896 547.264 350.464 547.264C350.032 547.264 349.6 547.276 349.168 547.3C348.736 547.324 348.304 547.372 347.872 547.444C347.44 547.516 347.02 547.576 346.612 547.624C346.42 547.672 346.24 547.72 346.072 547.768C345.904 547.792 345.736 547.828 345.568 547.876C345.376 547.924 345.196 547.984 345.028 548.056C344.884 548.128 344.716 548.224 344.524 548.344C344.284 548.632 344.116 548.896 344.02 549.136C343.9 549.424 343.84 549.712 343.84 550C343.792 550.12 343.792 550.312 343.84 550.576C343.888 550.816 343.984 551.02 344.128 551.188C344.44 551.524 344.728 551.74 344.992 551.836C345.448 551.956 345.88 552.064 346.288 552.16C346.72 552.256 347.104 552.352 347.44 552.448C347.56 552.448 347.692 552.472 347.836 552.52C347.98 552.568 348.112 552.592 348.232 552.592C348.712 552.64 349.144 552.724 349.528 552.844C349.912 552.94 350.332 553.072 350.788 553.24C351.124 553.36 351.46 553.492 351.796 553.636C352.156 553.756 352.504 553.924 352.84 554.14C353.104 554.5 353.296 554.812 353.416 555.076C353.56 555.34 353.692 555.652 353.812 556.012V556.948C353.812 557.188 353.764 557.416 353.668 557.632C353.572 557.848 353.464 558.016 353.344 558.136C353.104 558.76 352.636 559.3 351.94 559.756C351.484 560.092 351.004 560.368 350.5 560.584C350.02 560.824 349.492 560.992 348.916 561.088C348.1 561.352 347.272 561.496 346.432 561.52C345.616 561.568 344.752 561.532 343.84 561.412L341.86 561.232C341.644 561.208 341.392 561.172 341.104 561.124C340.816 561.076 340.528 561.004 340.24 560.908C339.832 560.788 339.532 560.716 339.34 560.692C339.172 560.692 339.076 560.668 339.052 560.62C339.028 560.572 339.004 560.524 338.98 560.476C338.956 560.452 338.944 560.428 338.944 560.404C338.824 560.14 338.752 559.888 338.728 559.648C338.704 559.432 338.632 559.156 338.512 558.82C338.464 558.7 338.428 558.592 338.404 558.496C338.38 558.4 338.356 558.304 338.332 558.208V558.1C338.332 558.052 338.32 558.016 338.296 557.992C338.296 557.968 338.308 557.932 338.332 557.884C338.452 557.884 338.548 557.896 338.62 557.92C338.716 557.944 338.824 557.956 338.944 557.956C339.232 558.028 339.556 558.1 339.916 558.172C340.3 558.244 340.6 558.28 340.816 558.28C341.032 558.28 341.272 558.292 341.536 558.316C341.8 558.316 342.1 558.316 342.436 558.316C342.724 558.34 343.024 558.352 343.336 558.352C343.648 558.352 343.96 558.292 344.272 558.172C344.344 558.1 344.464 558.028 344.632 557.956C344.8 557.884 344.98 557.812 345.172 557.74C345.364 557.644 345.544 557.56 345.712 557.488C345.904 557.392 346.048 557.284 346.144 557.164ZM372.89 558.1C372.89 558.364 372.878 558.64 372.854 558.928C372.854 559.216 372.866 559.492 372.89 559.756C372.89 559.9 372.89 560.104 372.89 560.368C372.89 560.656 372.878 560.872 372.854 561.016C372.878 561.112 372.854 561.196 372.782 561.268C372.71 561.364 372.65 561.436 372.602 561.484H371.666C371.546 561.484 371.402 561.472 371.234 561.448C371.09 561.448 370.958 561.448 370.838 561.448C370.742 561.496 370.61 561.52 370.442 561.52C370.274 561.52 370.094 561.52 369.902 561.52C369.734 561.52 369.566 561.508 369.398 561.484C369.254 561.484 369.17 561.484 369.146 561.484C369.026 561.364 368.954 561.28 368.93 561.232C368.93 561.208 368.93 561.136 368.93 561.016V557.56L368.858 555.436L368.93 553.024L368.894 550.936L368.75 549.208C368.462 549.208 368.114 549.22 367.706 549.244C367.298 549.268 366.986 549.256 366.77 549.208C366.362 549.136 366.038 549.124 365.798 549.172C365.582 549.196 365.306 549.208 364.97 549.208V546.904H365.186C365.306 546.904 365.402 546.904 365.474 546.904C365.57 546.88 365.642 546.88 365.69 546.904C365.81 547 365.978 547.036 366.194 547.012C366.434 546.964 366.542 546.916 366.518 546.868C366.782 546.844 366.938 546.832 366.986 546.832C367.058 546.832 367.202 546.832 367.418 546.832C367.61 546.832 367.886 546.844 368.246 546.868C368.63 546.868 368.882 546.856 369.002 546.832C369.002 546.832 369.002 546.76 369.002 546.616C369.002 546.472 369.002 546.304 369.002 546.112C369.002 545.92 369.002 545.716 369.002 545.5C369.002 545.284 369.002 545.116 369.002 544.996C369.05 544.54 369.074 544.132 369.074 543.772C369.098 543.388 369.122 542.956 369.146 542.476C369.17 542.14 369.182 541.816 369.182 541.504C369.182 541.192 369.182 540.868 369.182 540.532C369.182 540.196 369.194 539.788 369.218 539.308C369.266 538.804 369.278 538.36 369.254 537.976C369.254 537.856 369.23 537.784 369.182 537.76C369.158 537.712 369.146 537.628 369.146 537.508C369.146 537.388 369.158 537.304 369.182 537.256C369.206 537.184 369.278 537.148 369.398 537.148C369.614 537.148 369.842 537.16 370.082 537.184C370.322 537.208 370.55 537.22 370.766 537.22C371.126 537.22 371.45 537.22 371.738 537.22C372.05 537.22 372.302 537.232 372.494 537.256C372.854 537.304 373.13 537.352 373.322 537.4C373.322 537.4 373.322 537.46 373.322 537.58C373.322 537.676 373.322 537.808 373.322 537.976C373.322 538.12 373.31 538.276 373.286 538.444C373.286 538.612 373.286 538.768 373.286 538.912C373.262 539.512 373.25 540.04 373.25 540.496C373.25 540.928 373.262 541.444 373.286 542.044C373.286 542.308 373.274 542.584 373.25 542.872C373.25 543.16 373.262 543.436 373.286 543.7C373.286 543.772 373.274 543.928 373.25 544.168C373.25 544.408 373.238 544.672 373.214 544.96C373.19 545.224 373.166 545.476 373.142 545.716C373.118 545.956 373.106 546.112 373.106 546.184C373.106 546.304 373.13 546.412 373.178 546.508C373.226 546.604 373.274 546.652 373.322 546.652C373.442 546.652 373.598 546.676 373.79 546.724C373.982 546.748 374.138 546.76 374.258 546.76C374.378 546.76 374.498 546.784 374.618 546.832C374.762 546.856 374.954 546.868 375.194 546.868C375.41 546.868 375.626 546.88 375.842 546.904C376.082 546.904 376.334 546.904 376.598 546.904C376.646 546.904 376.694 546.916 376.742 546.94C376.79 546.94 376.838 546.94 376.886 546.94H377.03C377.15 547.3 377.21 547.708 377.21 548.164C377.21 548.62 377.15 548.968 377.03 549.208H376.814C376.334 549.256 375.866 549.304 375.41 549.352C374.954 549.376 374.486 549.388 374.006 549.388C373.886 549.388 373.742 549.4 373.574 549.424C373.406 549.424 373.262 549.424 373.142 549.424C373.142 549.472 373.13 549.532 373.106 549.604C373.106 549.652 373.106 549.7 373.106 549.748V549.892V550.216C373.106 550.432 373.106 550.636 373.106 550.828C373.13 550.996 373.13 551.176 373.106 551.368L373.178 553.276L373.034 554.896C373.034 555.016 373.022 555.232 372.998 555.544C372.998 555.832 372.986 556.156 372.962 556.516C372.962 556.852 372.95 557.176 372.926 557.488C372.902 557.776 372.89 557.98 372.89 558.1ZM390.094 552.088C390.094 552.208 390.034 552.328 389.914 552.448C389.842 552.52 389.734 552.568 389.59 552.592C389.446 552.616 389.314 552.628 389.194 552.628C389.026 552.676 388.822 552.7 388.582 552.7C388.342 552.7 388.138 552.7 387.97 552.7C387.634 552.7 387.382 552.712 387.214 552.736C387.046 552.736 386.77 552.76 386.386 552.808L384.226 552.988V553.42C384.226 553.684 384.262 553.948 384.334 554.212C384.406 554.452 384.538 554.704 384.73 554.968C384.85 555.16 384.994 555.34 385.162 555.508C385.33 555.676 385.498 555.784 385.666 555.832C385.81 555.88 385.942 555.928 386.062 555.976C386.182 556.024 386.29 556.072 386.386 556.12C386.506 556.144 386.614 556.144 386.71 556.12C387.358 556.12 387.826 556.048 388.114 555.904C388.426 555.76 388.798 555.58 389.23 555.364C389.326 555.364 389.422 555.316 389.518 555.22C389.638 555.124 389.722 555.064 389.77 555.04C389.89 554.992 390.058 554.872 390.274 554.68C390.514 554.488 390.694 554.368 390.814 554.32C390.886 554.368 390.91 554.536 390.886 554.824C390.862 555.088 390.874 555.34 390.922 555.58V555.976V556.696C390.802 556.84 390.706 556.948 390.634 557.02C390.586 557.068 390.538 557.116 390.49 557.164C390.466 557.212 390.418 557.272 390.346 557.344C390.274 557.416 390.166 557.524 390.022 557.668C389.59 558.1 389.134 558.388 388.654 558.532C388.39 558.676 388.102 558.784 387.79 558.856C387.478 558.904 387.226 558.964 387.034 559.036C386.914 559.06 386.806 559.072 386.71 559.072C386.614 559.096 386.518 559.108 386.422 559.108H386.134C385.678 559.108 385.234 559.096 384.802 559.072C384.37 559.072 383.914 558.952 383.434 558.712C383.266 558.736 383.026 558.688 382.714 558.568C382.426 558.448 382.234 558.328 382.138 558.208C381.874 558.064 381.634 557.884 381.418 557.668C381.226 557.452 381.01 557.26 380.77 557.092C380.434 556.852 380.194 556.6 380.05 556.336C379.906 556.072 379.774 555.796 379.654 555.508C379.534 555.292 379.426 555.052 379.33 554.788C379.234 554.524 379.138 554.26 379.042 553.996C379.042 553.732 379.03 553.48 379.006 553.24C379.006 553 379.006 552.76 379.006 552.52V551.188C379.006 550.756 379.09 550.24 379.258 549.64C379.45 549.04 379.678 548.524 379.942 548.092C380.014 547.996 380.098 547.9 380.194 547.804C380.266 547.708 380.35 547.612 380.446 547.516C380.566 547.42 380.686 547.312 380.806 547.192C380.878 547.168 380.95 547.132 381.022 547.084C381.118 547.036 381.25 546.964 381.418 546.868C381.49 546.82 381.574 546.736 381.67 546.616C381.79 546.496 381.946 546.412 382.138 546.364C382.402 546.268 382.654 546.172 382.894 546.076C383.134 545.956 383.314 545.896 383.434 545.896C383.602 545.896 383.902 545.908 384.334 545.932C384.79 545.956 385.222 545.98 385.63 546.004C385.846 546.028 386.026 546.064 386.17 546.112C386.314 546.16 386.422 546.184 386.494 546.184C386.686 546.208 386.842 546.232 386.962 546.256C387.106 546.28 387.25 546.316 387.394 546.364C387.826 546.508 388.138 546.664 388.33 546.832C388.546 546.976 388.726 547.132 388.87 547.3C388.966 547.42 389.05 547.564 389.122 547.732C389.218 547.876 389.314 548.008 389.41 548.128C389.53 548.272 389.638 548.476 389.734 548.74C389.854 548.98 389.938 549.22 389.986 549.46C390.034 549.652 390.07 549.904 390.094 550.216C390.118 550.528 390.13 550.804 390.13 551.044C390.13 551.284 390.118 551.464 390.094 551.584C390.094 551.704 390.094 551.872 390.094 552.088ZM386.998 550C386.998 549.952 386.998 549.868 386.998 549.748C386.998 549.604 386.974 549.508 386.926 549.46C386.734 549.148 386.458 548.968 386.098 548.92C385.762 548.848 385.462 548.836 385.198 548.884C385.03 548.932 384.922 548.992 384.874 549.064C384.826 549.136 384.754 549.244 384.658 549.388C384.61 549.436 384.574 549.484 384.55 549.532C384.526 549.58 384.49 549.628 384.442 549.676C384.394 549.724 384.358 549.796 384.334 549.892C384.334 549.964 384.322 550.036 384.298 550.108C384.25 550.228 384.226 550.312 384.226 550.36C384.226 550.408 384.25 550.528 384.298 550.72C384.394 550.768 384.574 550.816 384.838 550.864C385.126 550.888 385.414 550.9 385.702 550.9C386.014 550.9 386.302 550.888 386.566 550.864C386.854 550.816 387.046 550.768 387.142 550.72C387.166 550.696 387.142 550.636 387.07 550.54C387.022 550.42 386.998 550.24 386.998 550ZM400.087 549.28C399.799 549.328 399.535 549.4 399.295 549.496C399.055 549.592 398.827 549.772 398.611 550.036C398.275 550.372 398.035 550.756 397.891 551.188C397.771 551.62 397.711 552.112 397.711 552.664V553.564C397.831 553.804 397.915 554.068 397.963 554.356C398.011 554.644 398.155 554.896 398.395 555.112C398.515 555.328 398.671 555.544 398.863 555.76C399.055 555.976 399.247 556.216 399.439 556.48C399.559 556.552 399.715 556.612 399.907 556.66C400.099 556.684 400.255 556.756 400.375 556.876C400.687 556.996 401.047 557.068 401.455 557.092C401.863 557.092 402.235 557.092 402.571 557.092C402.739 557.068 402.907 557.032 403.075 556.984C403.243 556.912 403.507 556.876 403.867 556.876C403.987 556.828 404.083 556.876 404.155 557.02C404.227 557.14 404.299 557.296 404.371 557.488C404.443 557.608 404.515 557.764 404.587 557.956C404.659 558.124 404.719 558.28 404.767 558.424C404.815 558.52 404.863 558.616 404.911 558.712C404.983 558.784 405.019 558.892 405.019 559.036C404.971 559.06 404.911 559.096 404.839 559.144C404.767 559.216 404.683 559.276 404.587 559.324C404.539 559.444 404.431 559.516 404.263 559.54C404.095 559.588 403.963 559.66 403.867 559.756C403.003 560.188 402.127 560.404 401.239 560.404C401.023 560.404 400.819 560.404 400.627 560.404C400.435 560.428 400.195 560.428 399.907 560.404C399.691 560.404 399.403 560.344 399.043 560.224C398.899 560.224 398.683 560.224 398.395 560.224C398.107 560.224 397.891 560.212 397.747 560.188C397.627 560.164 397.507 560.116 397.387 560.044C397.291 559.972 397.183 559.912 397.063 559.864C396.943 559.816 396.823 559.768 396.703 559.72C396.583 559.672 396.463 559.624 396.343 559.576C396.079 559.456 395.839 559.264 395.623 559C395.431 558.76 395.215 558.532 394.975 558.316C394.759 558.124 394.519 557.872 394.255 557.56C394.015 557.224 393.871 556.948 393.823 556.732C393.727 556.468 393.595 556.18 393.427 555.868C393.283 555.556 393.199 555.232 393.175 554.896C393.127 554.752 393.103 554.632 393.103 554.536C393.103 554.44 393.103 554.344 393.103 554.248V552.664C393.103 552.112 393.115 551.62 393.139 551.188C393.187 550.732 393.319 550.288 393.535 549.856C393.655 549.616 393.763 549.352 393.859 549.064C393.979 548.776 394.159 548.512 394.399 548.272C394.399 548.152 394.447 548.044 394.543 547.948C394.639 547.828 394.747 547.732 394.867 547.66L395.479 546.976C395.743 546.856 395.947 546.748 396.091 546.652C396.235 546.532 396.403 546.412 396.595 546.292C396.931 546.172 397.255 546.076 397.567 546.004C397.879 545.908 398.155 545.86 398.395 545.86C398.779 545.788 399.091 545.728 399.331 545.68C399.595 545.608 399.931 545.644 400.339 545.788C400.555 545.812 400.771 545.848 400.987 545.896C401.227 545.92 401.443 545.98 401.635 546.076C401.827 546.124 401.971 546.16 402.067 546.184C402.163 546.208 402.283 546.244 402.427 546.292C402.667 546.34 402.895 546.424 403.111 546.544C403.351 546.664 403.567 546.784 403.759 546.904L404.011 546.976C404.035 546.976 404.035 547.072 404.011 547.264C404.011 547.432 403.987 547.612 403.939 547.804C403.891 547.924 403.867 548.056 403.867 548.2C403.867 548.32 403.867 548.5 403.867 548.74V549.388C403.867 549.436 403.831 549.496 403.759 549.568C403.735 549.592 403.711 549.604 403.687 549.604C403.567 549.604 403.459 549.592 403.363 549.568C403.267 549.52 403.159 549.496 403.039 549.496C402.871 549.448 402.667 549.388 402.427 549.316C402.187 549.22 401.983 549.172 401.815 549.172C401.503 549.172 401.203 549.172 400.915 549.172C400.651 549.172 400.375 549.208 400.087 549.28ZM407.958 546.724C407.958 546.652 407.946 546.58 407.922 546.508C407.898 546.436 407.898 546.364 407.922 546.292C407.946 546.292 407.982 546.292 408.03 546.292C408.102 546.268 408.162 546.256 408.21 546.256H408.426C408.546 546.232 408.666 546.232 408.786 546.256C408.906 546.256 409.026 546.244 409.146 546.22H410.226C410.274 546.22 410.322 546.244 410.37 546.292C410.418 546.34 410.454 546.376 410.478 546.4L410.55 546.724C410.55 546.796 410.562 546.88 410.586 546.976C410.634 547.168 410.658 547.372 410.658 547.588C410.682 547.66 410.694 547.732 410.694 547.804C410.694 547.948 410.706 548.02 410.73 548.02C410.826 547.924 410.898 547.828 410.946 547.732C410.994 547.612 411.054 547.528 411.126 547.48C411.198 547.408 411.246 547.36 411.27 547.336C411.318 547.312 411.354 547.288 411.378 547.264C411.426 547.24 411.486 547.216 411.558 547.192C411.63 547.144 411.738 547.072 411.882 546.976C412.098 546.856 412.29 546.76 412.458 546.688C412.65 546.616 412.938 546.484 413.322 546.292C413.394 546.268 413.514 546.232 413.682 546.184C413.874 546.136 414.078 546.1 414.294 546.076C414.51 546.028 414.726 546.004 414.942 546.004C415.182 545.98 415.386 545.968 415.554 545.968C415.818 545.992 416.034 546.028 416.202 546.076C416.37 546.1 416.598 546.136 416.886 546.184C417.006 546.208 417.198 546.232 417.462 546.256C417.75 546.28 417.942 546.316 418.038 546.364C418.638 546.7 419.118 546.988 419.478 547.228C419.838 547.468 420.15 547.792 420.414 548.2C420.462 548.248 420.534 548.308 420.63 548.38C420.726 548.428 420.834 548.512 420.954 548.632C421.074 548.752 421.182 548.92 421.278 549.136C421.398 549.328 421.458 549.448 421.458 549.496C421.554 549.904 421.662 550.24 421.782 550.504C421.902 550.744 421.974 551.068 421.998 551.476C422.022 551.668 422.082 551.884 422.178 552.124C422.274 552.34 422.322 552.568 422.322 552.808C422.322 553.048 422.334 553.324 422.358 553.636C422.382 553.924 422.37 554.344 422.322 554.896C422.322 555.064 422.322 555.22 422.322 555.364C422.346 555.508 422.358 555.652 422.358 555.796V557.452C422.358 557.62 422.358 557.776 422.358 557.92C422.358 558.064 422.346 558.208 422.322 558.352C422.322 558.544 422.322 558.712 422.322 558.856C422.346 559 422.358 559.168 422.358 559.36C422.358 559.408 422.358 559.456 422.358 559.504C422.358 559.576 422.334 559.624 422.286 559.648C422.238 559.672 422.166 559.684 422.07 559.684C421.998 559.684 421.938 559.684 421.89 559.684C421.674 559.684 421.47 559.684 421.278 559.684C421.086 559.708 420.882 559.708 420.666 559.684L419.586 559.576C419.49 559.552 419.358 559.552 419.19 559.576C419.022 559.6 418.914 559.564 418.866 559.468C418.842 558.916 418.83 558.532 418.83 558.316C418.854 558.076 418.866 557.86 418.866 557.668C418.866 557.548 418.854 557.404 418.83 557.236C418.806 557.044 418.782 556.792 418.758 556.48L418.866 554.572C418.866 554.332 418.854 554.152 418.83 554.032C418.83 553.888 418.818 553.78 418.794 553.708C418.794 553.612 418.782 553.504 418.758 553.384C418.758 553.264 418.758 553.072 418.758 552.808C418.758 552.376 418.674 551.944 418.506 551.512C418.362 551.08 418.182 550.648 417.966 550.216C417.846 549.976 417.69 549.76 417.498 549.568C417.306 549.376 417.054 549.208 416.742 549.064C416.694 549.04 416.634 549.016 416.562 548.992C416.49 548.968 416.43 548.956 416.382 548.956L415.554 548.884C415.146 548.86 414.726 548.932 414.294 549.1C413.862 549.268 413.598 549.436 413.502 549.604C413.334 549.892 413.202 550.108 413.106 550.252C413.01 550.396 412.914 550.54 412.818 550.684C412.794 550.756 412.758 550.888 412.71 551.08C412.662 551.248 412.602 551.464 412.53 551.728C412.482 551.968 412.434 552.232 412.386 552.52C412.338 552.784 412.314 553.024 412.314 553.24C412.314 553.408 412.314 553.576 412.314 553.744C412.314 553.888 412.302 554.032 412.278 554.176L412.206 555.184L411.99 556.552C411.99 556.792 411.99 557.056 411.99 557.344C411.99 557.608 411.978 557.86 411.954 558.1V558.928C411.81 559.024 411.69 559.072 411.594 559.072C411.33 559.12 411.138 559.168 411.018 559.216C410.922 559.264 410.73 559.276 410.442 559.252C410.178 559.228 409.83 559.228 409.398 559.252C408.966 559.3 408.618 559.3 408.354 559.252C408.09 559.204 407.958 559.168 407.958 559.144C407.958 559.144 407.958 559.084 407.958 558.964C407.958 558.868 407.958 558.724 407.958 558.532C407.982 558.316 407.994 558.1 407.994 557.884C407.994 557.644 407.994 557.416 407.994 557.2C408.018 556.984 408.03 556.816 408.03 556.696C408.03 556.264 408.018 555.904 407.994 555.616C407.97 555.328 407.958 554.968 407.958 554.536C407.958 554.176 407.946 553.888 407.922 553.672C407.922 553.432 407.91 553.132 407.886 552.772C407.886 552.58 407.898 552.34 407.922 552.052C407.946 551.74 407.958 551.416 407.958 551.08C407.958 550.672 407.946 550.276 407.922 549.892C407.922 549.508 407.922 549.22 407.922 549.028C407.898 548.62 407.886 548.236 407.886 547.876C407.886 547.492 407.91 547.108 407.958 546.724ZM428.547 545.932C428.715 545.884 428.919 545.812 429.159 545.716C429.399 545.62 429.639 545.572 429.879 545.572C430.191 545.572 430.479 545.572 430.743 545.572C431.007 545.548 431.295 545.536 431.607 545.536C431.847 545.536 432.075 545.548 432.291 545.572C432.531 545.572 432.747 545.608 432.939 545.68C432.987 545.68 433.047 545.692 433.119 545.716C433.191 545.74 433.287 545.812 433.407 545.932C433.647 546.004 433.875 546.124 434.091 546.292C434.307 546.46 434.499 546.664 434.667 546.904C434.859 547.144 435.027 547.396 435.171 547.66C435.339 547.9 435.483 548.14 435.603 548.38C435.723 548.572 435.795 548.824 435.819 549.136C435.867 549.448 435.927 549.7 435.999 549.892C435.999 550.228 436.011 550.552 436.035 550.864C436.083 551.176 436.107 551.5 436.107 551.836C436.107 552.388 436.095 552.916 436.071 553.42C436.047 553.924 436.035 554.452 436.035 555.004L435.963 556.192C435.963 556.288 435.915 556.456 435.819 556.696C435.723 556.936 435.663 557.116 435.639 557.236C435.567 557.476 435.471 557.764 435.351 558.1C435.231 558.412 435.147 558.592 435.099 558.64C434.979 558.76 434.895 558.868 434.847 558.964C434.799 559.06 434.751 559.156 434.703 559.252C434.679 559.348 434.631 559.432 434.559 559.504C434.511 559.576 434.415 559.648 434.271 559.72C434.151 559.768 434.007 559.84 433.839 559.936C433.671 560.056 433.515 560.164 433.371 560.26C433.251 560.308 433.191 560.344 433.191 560.368C433.191 560.416 433.107 560.464 432.939 560.512L432.291 560.656C432.003 560.704 431.763 560.716 431.571 560.692C431.403 560.668 431.211 560.656 430.995 560.656C430.323 560.656 429.651 560.524 428.979 560.26C428.763 560.26 428.547 560.212 428.331 560.116C428.139 560.02 427.995 559.912 427.899 559.792C427.779 559.696 427.659 559.588 427.539 559.468C427.419 559.372 427.299 559.264 427.179 559.144C426.987 558.928 426.831 558.712 426.711 558.496C426.591 558.28 426.471 558.052 426.351 557.812C426.231 557.548 426.099 557.284 425.955 557.02C425.811 556.732 425.715 556.42 425.667 556.084C425.619 555.532 425.571 555.028 425.523 554.572C425.499 554.116 425.487 553.66 425.487 553.204V551.728C425.463 551.68 425.451 551.584 425.451 551.44C425.451 551.296 425.463 551.2 425.487 551.152C425.487 551.032 425.487 550.912 425.487 550.792C425.511 550.648 425.535 550.516 425.559 550.396C425.583 550.204 425.595 550.012 425.595 549.82C425.595 549.628 425.655 549.436 425.775 549.244C425.751 549.292 425.763 549.256 425.811 549.136C425.883 548.992 425.955 548.848 426.027 548.704C426.099 548.536 426.159 548.392 426.207 548.272C426.255 548.152 426.279 548.104 426.279 548.128L426.531 547.66C426.603 547.588 426.675 547.504 426.747 547.408C426.819 547.312 426.915 547.204 427.035 547.084C427.179 546.964 427.359 546.808 427.575 546.616C427.815 546.424 428.139 546.196 428.547 545.932ZM431.175 551.908C431.079 551.908 430.983 551.956 430.887 552.052C430.815 552.148 430.767 552.232 430.743 552.304C430.575 552.664 430.491 552.964 430.491 553.204C430.491 553.852 430.719 554.284 431.175 554.5C431.295 554.5 431.391 554.464 431.463 554.392C431.559 554.296 431.607 554.2 431.607 554.104C431.607 553.864 431.631 553.588 431.679 553.276C431.751 552.964 431.727 552.64 431.607 552.304C431.487 552.184 431.415 552.088 431.391 552.016C431.367 551.944 431.295 551.908 431.175 551.908ZM442.235 549.712C442.259 549.76 442.271 549.88 442.271 550.072C442.271 550.264 442.271 550.408 442.271 550.504C442.223 550.624 442.199 550.744 442.199 550.864C442.199 550.96 442.199 551.068 442.199 551.188C442.199 551.332 442.211 551.608 442.235 552.016C442.259 552.4 442.271 552.676 442.271 552.844V553.636C442.271 553.852 442.271 554.068 442.271 554.284C442.295 554.5 442.307 554.716 442.307 554.932C442.307 555.1 442.295 555.268 442.271 555.436C442.247 555.58 442.247 555.736 442.271 555.904C442.271 556.048 442.283 556.192 442.307 556.336C442.331 556.456 442.343 556.588 442.343 556.732V560.008C442.343 560.128 442.355 560.248 442.379 560.368C442.427 560.488 442.415 560.536 442.343 560.512C442.103 560.512 441.827 560.536 441.515 560.584C441.203 560.656 440.915 560.692 440.651 560.692C440.435 560.692 440.243 560.68 440.075 560.656C439.931 560.632 439.727 560.56 439.463 560.44V559.972C439.343 559.516 439.271 559.108 439.247 558.748C439.247 558.364 439.247 558.004 439.247 557.668C439.247 557.404 439.247 557.164 439.247 556.948C439.247 556.708 439.271 556.468 439.319 556.228C439.319 556.108 439.295 556.012 439.247 555.94C439.247 555.916 439.235 555.856 439.211 555.76C439.211 555.64 439.211 555.52 439.211 555.4C439.211 555.28 439.211 555.172 439.211 555.076C439.211 554.956 439.211 554.872 439.211 554.824V553.312C439.211 553.024 439.199 552.736 439.175 552.448C439.175 552.16 439.199 551.872 439.247 551.584C439.271 551.56 439.283 551.452 439.283 551.26C439.307 551.044 439.331 550.816 439.355 550.576C439.379 550.312 439.391 550.072 439.391 549.856C439.415 549.616 439.427 549.472 439.427 549.424C439.451 549.04 439.451 548.656 439.427 548.272C439.427 547.888 439.439 547.516 439.463 547.156C439.463 546.46 439.451 545.788 439.427 545.14C439.427 544.468 439.439 543.796 439.463 543.124C439.463 542.692 439.463 542.272 439.463 541.864C439.463 541.432 439.451 541.012 439.427 540.604C439.403 540.388 439.391 540.22 439.391 540.1C439.415 539.98 439.427 539.872 439.427 539.776C439.451 539.656 439.463 539.536 439.463 539.416C439.487 539.296 439.487 539.116 439.463 538.876C439.463 538.636 439.475 538.408 439.499 538.192C439.523 537.952 439.535 537.724 439.535 537.508C439.535 537.268 439.523 537.064 439.499 536.896C439.499 536.728 439.499 536.524 439.499 536.284L439.679 536.104C439.919 536.104 440.183 536.116 440.471 536.14C440.759 536.164 441.011 536.164 441.227 536.14C441.419 536.116 441.563 536.104 441.659 536.104C441.755 536.104 441.899 536.104 442.091 536.104C442.211 536.104 442.307 536.14 442.379 536.212C442.427 537.004 442.427 537.784 442.379 538.552C442.331 539.32 442.307 540.124 442.307 540.964V543.484C442.283 544.348 442.247 545.152 442.199 545.896C442.175 546.64 442.163 547.372 442.163 548.092C442.163 548.356 442.175 548.632 442.199 548.92C442.223 549.184 442.235 549.448 442.235 549.712ZM448.586 545.932C448.754 545.884 448.958 545.812 449.198 545.716C449.438 545.62 449.678 545.572 449.918 545.572C450.23 545.572 450.518 545.572 450.782 545.572C451.046 545.548 451.334 545.536 451.646 545.536C451.886 545.536 452.114 545.548 452.33 545.572C452.57 545.572 452.786 545.608 452.978 545.68C453.026 545.68 453.086 545.692 453.158 545.716C453.23 545.74 453.326 545.812 453.446 545.932C453.686 546.004 453.914 546.124 454.13 546.292C454.346 546.46 454.538 546.664 454.706 546.904C454.898 547.144 455.066 547.396 455.21 547.66C455.378 547.9 455.522 548.14 455.642 548.38C455.762 548.572 455.834 548.824 455.858 549.136C455.906 549.448 455.966 549.7 456.038 549.892C456.038 550.228 456.05 550.552 456.074 550.864C456.122 551.176 456.146 551.5 456.146 551.836C456.146 552.388 456.134 552.916 456.11 553.42C456.086 553.924 456.074 554.452 456.074 555.004L456.002 556.192C456.002 556.288 455.954 556.456 455.858 556.696C455.762 556.936 455.702 557.116 455.678 557.236C455.606 557.476 455.51 557.764 455.39 558.1C455.27 558.412 455.186 558.592 455.138 558.64C455.018 558.76 454.934 558.868 454.886 558.964C454.838 559.06 454.79 559.156 454.742 559.252C454.718 559.348 454.67 559.432 454.598 559.504C454.55 559.576 454.454 559.648 454.31 559.72C454.19 559.768 454.046 559.84 453.878 559.936C453.71 560.056 453.554 560.164 453.41 560.26C453.29 560.308 453.23 560.344 453.23 560.368C453.23 560.416 453.146 560.464 452.978 560.512L452.33 560.656C452.042 560.704 451.802 560.716 451.61 560.692C451.442 560.668 451.25 560.656 451.034 560.656C450.362 560.656 449.69 560.524 449.018 560.26C448.802 560.26 448.586 560.212 448.37 560.116C448.178 560.02 448.034 559.912 447.938 559.792C447.818 559.696 447.698 559.588 447.578 559.468C447.458 559.372 447.338 559.264 447.218 559.144C447.026 558.928 446.87 558.712 446.75 558.496C446.63 558.28 446.51 558.052 446.39 557.812C446.27 557.548 446.138 557.284 445.994 557.02C445.85 556.732 445.754 556.42 445.706 556.084C445.658 555.532 445.61 555.028 445.562 554.572C445.538 554.116 445.526 553.66 445.526 553.204V551.728C445.502 551.68 445.49 551.584 445.49 551.44C445.49 551.296 445.502 551.2 445.526 551.152C445.526 551.032 445.526 550.912 445.526 550.792C445.55 550.648 445.574 550.516 445.598 550.396C445.622 550.204 445.634 550.012 445.634 549.82C445.634 549.628 445.694 549.436 445.814 549.244C445.79 549.292 445.802 549.256 445.85 549.136C445.922 548.992 445.994 548.848 446.066 548.704C446.138 548.536 446.198 548.392 446.246 548.272C446.294 548.152 446.318 548.104 446.318 548.128L446.57 547.66C446.642 547.588 446.714 547.504 446.786 547.408C446.858 547.312 446.954 547.204 447.074 547.084C447.218 546.964 447.398 546.808 447.614 546.616C447.854 546.424 448.178 546.196 448.586 545.932ZM451.214 551.908C451.118 551.908 451.022 551.956 450.926 552.052C450.854 552.148 450.806 552.232 450.782 552.304C450.614 552.664 450.53 552.964 450.53 553.204C450.53 553.852 450.758 554.284 451.214 554.5C451.334 554.5 451.43 554.464 451.502 554.392C451.598 554.296 451.646 554.2 451.646 554.104C451.646 553.864 451.67 553.588 451.718 553.276C451.79 552.964 451.766 552.64 451.646 552.304C451.526 552.184 451.454 552.088 451.43 552.016C451.406 551.944 451.334 551.908 451.214 551.908ZM458.746 549.244C458.746 549.196 458.782 549.04 458.854 548.776C458.95 548.512 459.01 548.368 459.034 548.344C459.082 548.224 459.118 548.128 459.142 548.056C459.166 547.96 459.238 547.828 459.358 547.66C459.454 547.54 459.574 547.396 459.718 547.228C459.886 547.06 459.994 546.94 460.042 546.868C460.138 546.724 460.246 546.592 460.366 546.472C460.462 546.352 460.606 546.232 460.798 546.112C460.99 545.992 461.146 545.872 461.266 545.752C461.602 545.656 461.89 545.56 462.13 545.464C462.394 545.368 462.646 545.32 462.886 545.32C463.366 545.32 463.822 545.332 464.254 545.356C464.71 545.38 465.106 545.452 465.442 545.572C465.802 545.572 466.102 545.62 466.342 545.716C466.582 545.788 466.822 545.884 467.062 546.004C467.182 546.244 467.338 546.436 467.53 546.58C467.722 546.7 467.878 546.82 467.998 546.94L468.214 547.156C468.382 547.036 468.454 546.904 468.43 546.76C468.43 546.616 468.454 546.484 468.502 546.364C468.55 546.22 468.574 546.1 468.574 546.004C468.574 545.884 468.598 545.8 468.646 545.752C468.718 545.728 468.802 545.728 468.898 545.752C468.994 545.752 469.09 545.752 469.186 545.752C469.402 545.752 469.678 545.74 470.014 545.716C470.35 545.692 470.602 545.704 470.77 545.752C470.818 545.776 470.866 545.824 470.914 545.896C470.962 545.944 470.986 545.98 470.986 546.004V546.256C470.986 546.4 470.986 546.592 470.986 546.832C471.01 547.048 471.022 547.276 471.022 547.516C471.022 547.732 471.01 547.948 470.986 548.164C470.986 548.38 470.986 548.56 470.986 548.704C470.986 548.824 470.974 549.028 470.95 549.316C470.95 549.604 470.95 549.916 470.95 550.252C470.95 550.564 470.95 550.852 470.95 551.116C470.95 551.38 470.962 551.524 470.986 551.548C470.986 551.788 470.974 552.052 470.95 552.34C470.926 552.628 470.926 552.832 470.95 552.952L470.986 554.104C471.01 554.272 470.998 554.536 470.95 554.896C470.926 555.256 470.938 555.664 470.986 556.12C471.01 556.288 471.01 556.54 470.986 556.876C470.986 557.188 470.974 557.524 470.95 557.884C470.95 558.22 470.938 558.544 470.914 558.856C470.914 559.144 470.914 559.348 470.914 559.468C470.914 559.924 470.83 560.38 470.662 560.836C470.518 561.316 470.386 561.784 470.266 562.24C470.146 562.48 470.026 562.708 469.906 562.924C469.786 563.14 469.606 563.38 469.366 563.644C469.27 563.764 469.162 563.908 469.042 564.076C468.922 564.268 468.802 564.424 468.682 564.544C468.562 564.712 468.346 564.892 468.034 565.084C467.746 565.3 467.542 565.504 467.422 565.696C467.302 565.84 467.098 565.96 466.81 566.056C466.522 566.152 466.318 566.212 466.198 566.236L464.938 566.668C464.722 566.788 464.494 566.884 464.254 566.956C464.038 567.052 463.762 567.112 463.426 567.136C463.378 567.136 463.33 567.124 463.282 567.1C463.234 567.1 463.186 567.112 463.138 567.136C462.898 567.136 462.694 567.16 462.526 567.208C462.382 567.28 462.19 567.316 461.95 567.316H461.734C461.398 567.316 461.17 567.304 461.05 567.28C460.954 567.28 460.702 567.292 460.294 567.316C460.27 567.316 460.198 567.328 460.078 567.352C459.958 567.376 459.898 567.364 459.898 567.316C459.898 566.86 459.874 566.44 459.826 566.056C459.802 565.672 459.79 565.3 459.79 564.94L460.042 564.724H461.266C461.602 564.604 461.902 564.532 462.166 564.508C462.454 564.484 462.778 564.412 463.138 564.292C463.474 564.076 463.774 563.86 464.038 563.644C464.326 563.428 464.638 563.26 464.974 563.14C465.214 562.924 465.442 562.696 465.658 562.456C465.874 562.24 466.042 562.012 466.162 561.772C466.378 561.556 466.51 561.328 466.558 561.088C466.63 560.848 466.726 560.608 466.846 560.368C466.846 560.152 466.882 559.924 466.954 559.684C467.026 559.468 467.062 559.24 467.062 559V558.064C467.062 557.944 467.026 557.92 466.954 557.992C466.906 558.016 466.87 558.04 466.846 558.064C466.51 558.28 466.114 558.412 465.658 558.46C465.202 558.484 464.746 558.496 464.29 558.496H464.038C463.702 558.472 463.378 558.4 463.066 558.28C462.754 558.208 462.49 558.136 462.274 558.064C462.058 557.992 461.818 557.884 461.554 557.74C461.482 557.692 461.374 557.644 461.23 557.596C461.086 557.524 460.846 557.392 460.51 557.2L460.078 556.696L459.286 555.832C459.214 555.712 459.142 555.556 459.07 555.364C459.022 555.172 458.95 554.944 458.854 554.68C458.806 554.536 458.746 554.38 458.674 554.212C458.602 554.044 458.542 553.864 458.494 553.672V550.648C458.494 550.528 458.518 550.372 458.566 550.18C458.638 549.964 458.674 549.808 458.674 549.712C458.674 549.664 458.686 549.616 458.71 549.568C458.71 549.52 458.71 549.472 458.71 549.424C458.734 549.376 458.746 549.316 458.746 549.244ZM464.29 553.204C464.41 553.204 464.518 553.192 464.614 553.168C464.734 553.144 464.854 553.072 464.974 552.952C465.022 552.856 465.034 552.76 465.01 552.664C465.01 552.544 465.034 552.46 465.082 552.412C465.202 552.22 465.25 552.1 465.226 552.052C465.202 552.004 465.19 551.92 465.19 551.8C465.19 551.68 465.142 551.536 465.046 551.368C464.974 551.176 464.878 551.02 464.758 550.9C464.638 550.78 464.554 550.72 464.506 550.72C464.458 550.72 464.302 550.78 464.038 550.9C463.87 551.068 463.786 551.416 463.786 551.944C463.786 551.992 463.774 552.1 463.75 552.268C463.75 552.436 463.774 552.592 463.822 552.736C463.822 552.784 463.882 552.88 464.002 553.024C464.122 553.144 464.218 553.204 464.29 553.204ZM478.865 559H475.697V539.704H478.865V559ZM482.357 531.424V531.784C482.045 532.216 481.589 532.78 480.989 533.476C480.413 534.148 479.777 534.832 479.081 535.528C478.409 536.2 477.785 536.752 477.209 537.184H475.121V536.752C475.457 536.32 475.841 535.792 476.273 535.168C476.705 534.52 477.125 533.872 477.533 533.224C477.941 532.552 478.277 531.952 478.541 531.424H482.357ZM494.086 552.088C494.086 552.208 494.026 552.328 493.906 552.448C493.834 552.52 493.726 552.568 493.582 552.592C493.438 552.616 493.306 552.628 493.186 552.628C493.018 552.676 492.814 552.7 492.574 552.7C492.334 552.7 492.13 552.7 491.962 552.7C491.626 552.7 491.374 552.712 491.206 552.736C491.038 552.736 490.762 552.76 490.378 552.808L488.218 552.988V553.42C488.218 553.684 488.254 553.948 488.326 554.212C488.398 554.452 488.53 554.704 488.722 554.968C488.842 555.16 488.986 555.34 489.154 555.508C489.322 555.676 489.49 555.784 489.658 555.832C489.802 555.88 489.934 555.928 490.054 555.976C490.174 556.024 490.282 556.072 490.378 556.12C490.498 556.144 490.606 556.144 490.702 556.12C491.35 556.12 491.818 556.048 492.106 555.904C492.418 555.76 492.79 555.58 493.222 555.364C493.318 555.364 493.414 555.316 493.51 555.22C493.63 555.124 493.714 555.064 493.762 555.04C493.882 554.992 494.05 554.872 494.266 554.68C494.506 554.488 494.686 554.368 494.806 554.32C494.878 554.368 494.902 554.536 494.878 554.824C494.854 555.088 494.866 555.34 494.914 555.58V555.976V556.696C494.794 556.84 494.698 556.948 494.626 557.02C494.578 557.068 494.53 557.116 494.482 557.164C494.458 557.212 494.41 557.272 494.338 557.344C494.266 557.416 494.158 557.524 494.014 557.668C493.582 558.1 493.126 558.388 492.646 558.532C492.382 558.676 492.094 558.784 491.782 558.856C491.47 558.904 491.218 558.964 491.026 559.036C490.906 559.06 490.798 559.072 490.702 559.072C490.606 559.096 490.51 559.108 490.414 559.108H490.126C489.67 559.108 489.226 559.096 488.794 559.072C488.362 559.072 487.906 558.952 487.426 558.712C487.258 558.736 487.018 558.688 486.706 558.568C486.418 558.448 486.226 558.328 486.13 558.208C485.866 558.064 485.626 557.884 485.41 557.668C485.218 557.452 485.002 557.26 484.762 557.092C484.426 556.852 484.186 556.6 484.042 556.336C483.898 556.072 483.766 555.796 483.646 555.508C483.526 555.292 483.418 555.052 483.322 554.788C483.226 554.524 483.13 554.26 483.034 553.996C483.034 553.732 483.022 553.48 482.998 553.24C482.998 553 482.998 552.76 482.998 552.52V551.188C482.998 550.756 483.082 550.24 483.25 549.64C483.442 549.04 483.67 548.524 483.934 548.092C484.006 547.996 484.09 547.9 484.186 547.804C484.258 547.708 484.342 547.612 484.438 547.516C484.558 547.42 484.678 547.312 484.798 547.192C484.87 547.168 484.942 547.132 485.014 547.084C485.11 547.036 485.242 546.964 485.41 546.868C485.482 546.82 485.566 546.736 485.662 546.616C485.782 546.496 485.938 546.412 486.13 546.364C486.394 546.268 486.646 546.172 486.886 546.076C487.126 545.956 487.306 545.896 487.426 545.896C487.594 545.896 487.894 545.908 488.326 545.932C488.782 545.956 489.214 545.98 489.622 546.004C489.838 546.028 490.018 546.064 490.162 546.112C490.306 546.16 490.414 546.184 490.486 546.184C490.678 546.208 490.834 546.232 490.954 546.256C491.098 546.28 491.242 546.316 491.386 546.364C491.818 546.508 492.13 546.664 492.322 546.832C492.538 546.976 492.718 547.132 492.862 547.3C492.958 547.42 493.042 547.564 493.114 547.732C493.21 547.876 493.306 548.008 493.402 548.128C493.522 548.272 493.63 548.476 493.726 548.74C493.846 548.98 493.93 549.22 493.978 549.46C494.026 549.652 494.062 549.904 494.086 550.216C494.11 550.528 494.122 550.804 494.122 551.044C494.122 551.284 494.11 551.464 494.086 551.584C494.086 551.704 494.086 551.872 494.086 552.088ZM490.99 550C490.99 549.952 490.99 549.868 490.99 549.748C490.99 549.604 490.966 549.508 490.918 549.46C490.726 549.148 490.45 548.968 490.09 548.92C489.754 548.848 489.454 548.836 489.19 548.884C489.022 548.932 488.914 548.992 488.866 549.064C488.818 549.136 488.746 549.244 488.65 549.388C488.602 549.436 488.566 549.484 488.542 549.532C488.518 549.58 488.482 549.628 488.434 549.676C488.386 549.724 488.35 549.796 488.326 549.892C488.326 549.964 488.314 550.036 488.29 550.108C488.242 550.228 488.218 550.312 488.218 550.36C488.218 550.408 488.242 550.528 488.29 550.72C488.386 550.768 488.566 550.816 488.83 550.864C489.118 550.888 489.406 550.9 489.694 550.9C490.006 550.9 490.294 550.888 490.558 550.864C490.846 550.816 491.038 550.768 491.134 550.72C491.158 550.696 491.134 550.636 491.062 550.54C491.014 550.42 490.99 550.24 490.99 550ZM504.98 557.164C505.22 556.948 505.4 556.72 505.52 556.48C505.64 556.216 505.7 555.904 505.7 555.544C505.7 555.328 505.64 555.112 505.52 554.896C505.4 554.68 505.22 554.512 504.98 554.392C504.404 554.176 503.816 553.96 503.216 553.744C502.616 553.528 501.968 553.36 501.272 553.24C500.936 553.12 500.576 553 500.192 552.88C499.832 552.76 499.412 552.64 498.932 552.52C497.972 552.064 497.372 551.296 497.132 550.216C497.132 549.76 497.132 549.316 497.132 548.884C497.132 548.452 497.24 548.008 497.456 547.552C497.6 547.216 497.72 546.976 497.816 546.832C497.936 546.664 498.044 546.544 498.14 546.472C498.26 546.376 498.368 546.304 498.464 546.256C498.584 546.184 498.716 546.088 498.86 545.968C499.412 545.752 499.88 545.596 500.264 545.5C500.672 545.38 501.164 545.26 501.74 545.14C501.98 545.02 502.208 544.948 502.424 544.924C502.664 544.9 502.892 544.888 503.108 544.888H505.052C505.412 544.888 505.748 544.888 506.06 544.888C506.372 544.864 506.696 544.864 507.032 544.888C507.56 544.912 508.052 544.96 508.508 545.032C508.964 545.104 509.492 545.2 510.092 545.32C510.644 545.392 511.04 545.476 511.28 545.572C511.232 545.692 511.184 545.884 511.136 546.148C511.112 546.412 511.088 546.676 511.064 546.94C511.064 546.988 511.052 547.036 511.028 547.084C511.028 547.108 511.028 547.144 511.028 547.192C511.028 547.312 510.992 547.384 510.92 547.408C510.872 547.432 510.812 547.432 510.74 547.408C510.692 547.384 510.632 547.36 510.56 547.336C510.152 547.288 509.732 547.264 509.3 547.264C508.868 547.264 508.436 547.276 508.004 547.3C507.572 547.324 507.14 547.372 506.708 547.444C506.276 547.516 505.856 547.576 505.448 547.624C505.256 547.672 505.076 547.72 504.908 547.768C504.74 547.792 504.572 547.828 504.404 547.876C504.212 547.924 504.032 547.984 503.864 548.056C503.72 548.128 503.552 548.224 503.36 548.344C503.12 548.632 502.952 548.896 502.856 549.136C502.736 549.424 502.676 549.712 502.676 550C502.628 550.12 502.628 550.312 502.676 550.576C502.724 550.816 502.82 551.02 502.964 551.188C503.276 551.524 503.564 551.74 503.828 551.836C504.284 551.956 504.716 552.064 505.124 552.16C505.556 552.256 505.94 552.352 506.276 552.448C506.396 552.448 506.528 552.472 506.672 552.52C506.816 552.568 506.948 552.592 507.068 552.592C507.548 552.64 507.98 552.724 508.364 552.844C508.748 552.94 509.168 553.072 509.624 553.24C509.96 553.36 510.296 553.492 510.632 553.636C510.992 553.756 511.34 553.924 511.676 554.14C511.94 554.5 512.132 554.812 512.252 555.076C512.396 555.34 512.528 555.652 512.648 556.012V556.948C512.648 557.188 512.6 557.416 512.504 557.632C512.408 557.848 512.3 558.016 512.18 558.136C511.94 558.76 511.472 559.3 510.776 559.756C510.32 560.092 509.84 560.368 509.336 560.584C508.856 560.824 508.328 560.992 507.752 561.088C506.936 561.352 506.108 561.496 505.268 561.52C504.452 561.568 503.588 561.532 502.676 561.412L500.696 561.232C500.48 561.208 500.228 561.172 499.94 561.124C499.652 561.076 499.364 561.004 499.076 560.908C498.668 560.788 498.368 560.716 498.176 560.692C498.008 560.692 497.912 560.668 497.888 560.62C497.864 560.572 497.84 560.524 497.816 560.476C497.792 560.452 497.78 560.428 497.78 560.404C497.66 560.14 497.588 559.888 497.564 559.648C497.54 559.432 497.468 559.156 497.348 558.82C497.3 558.7 497.264 558.592 497.24 558.496C497.216 558.4 497.192 558.304 497.168 558.208V558.1C497.168 558.052 497.156 558.016 497.132 557.992C497.132 557.968 497.144 557.932 497.168 557.884C497.288 557.884 497.384 557.896 497.456 557.92C497.552 557.944 497.66 557.956 497.78 557.956C498.068 558.028 498.392 558.1 498.752 558.172C499.136 558.244 499.436 558.28 499.652 558.28C499.868 558.28 500.108 558.292 500.372 558.316C500.636 558.316 500.936 558.316 501.272 558.316C501.56 558.34 501.86 558.352 502.172 558.352C502.484 558.352 502.796 558.292 503.108 558.172C503.18 558.1 503.3 558.028 503.468 557.956C503.636 557.884 503.816 557.812 504.008 557.74C504.2 557.644 504.38 557.56 504.548 557.488C504.74 557.392 504.884 557.284 504.98 557.164Z" fill="black"/>
<rect x="309" y="280" width="5" height="11" fill="#292929"/>
<rect x="310" y="296" width="3" height="6" fill="#333333"/>
<rect x="311" y="282" width="1" height="7" fill="#0094FF"/>
<rect x="308" y="394" width="3" height="15" fill="#292929"/>
</svg>
